G04 ================== begin FILE IDENTIFICATION RECORD ==================*
G04 Layout Name:  NISIPEANU_ALEXANDRU_P1_N15.brd*
G04 Film Name:    BOTTOM*
G04 File Format:  Gerber RS274X*
G04 File Origin:  Cadence Allegro 17.2-S025*
G04 Origin Date:  Sun Dec 15 15:18:34 2024*
G04 *
G04 Layer:  ETCH/BOTTOM*
G04 Layer:  PIN/BOTTOM*
G04 Layer:  VIA CLASS/BOTTOM*
G04 *
G04 Offset:    (0.0000 0.0000)*
G04 Mirror:    No*
G04 Mode:      Positive*
G04 Rotation:  0*
G04 FullContactRelief:  No*
G04 UndefLineWidth:     0.1000*
G04 ================== end FILE IDENTIFICATION RECORD ====================*
%FSLAX25Y25*MOMM*%
%IR0*IPPOS*OFA0.00000B0.00000*MIA0B0*SFA1.00000B1.00000*%
%ADD10C,.8636*%
%ADD11C,.4064*%
%ADD12C,.6604*%
%ADD13C,.4572*%
G75*
%LPD*%
G75*
G54D10*
X1169000Y1931000D03*
X717000Y1816000D03*
X1410000Y1694000D03*
X1664000Y1732000D03*
X1256000Y1632000D03*
X1658000Y2320000D03*
X1774000Y2646000D03*
X1267420Y2753580D03*
X1243000Y3072000D03*
X1877000Y2996000D03*
X2253000Y867000D03*
X2344000Y2489000D03*
X2287000Y2952000D03*
X3122610Y2606610D03*
X2813000Y3114000D03*
X3510000Y1515000D03*
G54D11*
G01X2253000Y867000D02*
X2166000Y954000D01*
X1896000D01*
X1774000Y1076000D01*
Y2646000D01*
G01X1169000Y1931000D02*
X1269000D01*
X1658000Y2320000D01*
G01X2344000Y2489000D02*
X1973000Y2860000D01*
X1303000D01*
X1267420Y2824420D01*
Y2753580D01*
G01X1243000Y3072000D02*
Y3137000D01*
X1296000Y3190000D01*
X1800000D01*
X1877000Y3113000D01*
Y2996000D01*
G01X2813000Y3114000D02*
Y3039000D01*
X2726000Y2952000D01*
X2287000D01*
G01X3510000Y1515000D02*
X3402000Y1623000D01*
Y2565610D01*
X3361000Y2606610D01*
X3122610D01*
G54D12*
G01X717000Y1816000D02*
X1288000D01*
X1410000Y1694000D01*
G54D13*
G01X1256000Y1632000D02*
X1311000Y1577000D01*
X1509000D01*
X1664000Y1732000D01*
M02*
