G04 ================== begin FILE IDENTIFICATION RECORD ==================*
G04 Layout Name:  NISIPEANU_ALEXANDRU_P1_N15.brd*
G04 Film Name:    SSTOP*
G04 File Format:  Gerber RS274X*
G04 File Origin:  Cadence Allegro 17.2-S025*
G04 Origin Date:  Sun Dec 15 15:18:34 2024*
G04 *
G04 Layer:  USER PART NUMBER/SILKSCREEN_TOP*
G04 Layer:  TOLERANCE/SILKSCREEN_TOP*
G04 Layer:  REF DES/SILKSCREEN_TOP*
G04 Layer:  PACKAGE GEOMETRY/SILKSCREEN_TOP*
G04 Layer:  DEVICE TYPE/SILKSCREEN_TOP*
G04 Layer:  COMPONENT VALUE/SILKSCREEN_TOP*
G04 Layer:  BOARD GEOMETRY/SILKSCREEN_TOP*
G04 *
G04 Offset:    (0.0000 0.0000)*
G04 Mirror:    No*
G04 Mode:      Positive*
G04 Rotation:  0*
G04 FullContactRelief:  No*
G04 UndefLineWidth:     0.1000*
G04 ================== end FILE IDENTIFICATION RECORD ====================*
%FSLAX25Y25*MOMM*%
%IR0*IPPOS*OFA0.00000B0.00000*MIA0B0*SFA1.00000B1.00000*%
%ADD10C,.1*%
%ADD11C,.2*%
%ADD12C,.1524*%
G75*
%LPD*%
G75*
G54D10*
G01X229180Y166920D02*
Y246920D01*
X275180Y166920D01*
Y246920D01*
G01X327420Y220250D02*
Y166920D01*
G01Y241590D02*
X325420Y242920D01*
Y245590D01*
X327420Y246920D01*
X329420Y245590D01*
Y242920D01*
X327420Y241590D01*
G01X387660Y176250D02*
X392660Y170920D01*
X399660Y166920D01*
X405660D01*
X411660Y169590D01*
X415660Y173590D01*
X417660Y178920D01*
X416660Y186920D01*
X412660Y190920D01*
X394660Y198920D01*
X390660Y208250D01*
X392660Y214920D01*
X396660Y218920D01*
X402660Y220250D01*
X408660Y218920D01*
X414660Y214920D01*
G01X477900Y220250D02*
Y166920D01*
G01Y241590D02*
X475900Y242920D01*
Y245590D01*
X477900Y246920D01*
X479900Y245590D01*
Y242920D01*
X477900Y241590D01*
G01X535140Y140250D02*
Y220250D01*
G01Y208250D02*
X540140Y214920D01*
X545140Y218920D01*
X553140Y220250D01*
X560140Y218920D01*
X567140Y212250D01*
X570140Y202920D01*
X571140Y193590D01*
X570140Y184250D01*
X567140Y174920D01*
X561140Y169590D01*
X553140Y166920D01*
X546140Y168250D01*
X539140Y172250D01*
X535140Y177580D01*
G01X613380Y202920D02*
X645380D01*
X642380Y212250D01*
X637380Y217590D01*
X630380Y220250D01*
X623380Y218920D01*
X617380Y214920D01*
X613380Y205590D01*
X611380Y197580D01*
Y189590D01*
X613380Y181590D01*
X618380Y173590D01*
X624380Y168250D01*
X631380Y166920D01*
X638380Y169590D01*
X645380Y177580D01*
G01X721620Y166920D02*
Y220250D01*
G01Y210920D02*
X717620Y216250D01*
X711620Y218920D01*
X704620Y220250D01*
X697620Y217590D01*
X691620Y212250D01*
X687620Y204250D01*
X685620Y193590D01*
X687620Y182920D01*
X691620Y174920D01*
X697620Y169590D01*
X704620Y166920D01*
X711620Y168250D01*
X717620Y172250D01*
X721620Y177580D01*
G01X761860Y166920D02*
Y220250D01*
G01Y206920D02*
X765860Y213590D01*
X771860Y218920D01*
X779860Y220250D01*
X786860Y218920D01*
X792860Y213590D01*
X795860Y204250D01*
Y166920D01*
G01X837100Y220250D02*
Y182920D01*
X841100Y173590D01*
X847100Y168250D01*
X854100Y166920D01*
X861100Y168250D01*
X867100Y173590D01*
X871100Y182920D01*
G01Y166920D02*
Y220250D01*
G01X979580Y166920D02*
X1004580Y246920D01*
X1029580Y166920D01*
G01X1020580Y194920D02*
X988580D01*
G01X1079820Y166920D02*
Y246920D01*
G01X1140060Y202920D02*
X1172060D01*
X1169060Y212250D01*
X1164060Y217590D01*
X1157060Y220250D01*
X1150060Y218920D01*
X1144060Y214920D01*
X1140060Y205590D01*
X1138060Y197580D01*
Y189590D01*
X1140060Y181590D01*
X1145060Y173590D01*
X1151060Y168250D01*
X1158060Y166920D01*
X1165060Y169590D01*
X1172060Y177580D01*
G01X1215300Y220250D02*
X1245300Y166920D01*
G01Y220250D02*
X1215300Y166920D01*
G01X1323540D02*
Y220250D01*
G01Y210920D02*
X1319540Y216250D01*
X1313540Y218920D01*
X1306540Y220250D01*
X1299540Y217590D01*
X1293540Y212250D01*
X1289540Y204250D01*
X1287540Y193590D01*
X1289540Y182920D01*
X1293540Y174920D01*
X1299540Y169590D01*
X1306540Y166920D01*
X1313540Y168250D01*
X1319540Y172250D01*
X1323540Y177580D01*
G01X1363780Y166920D02*
Y220250D01*
G01Y206920D02*
X1367780Y213590D01*
X1373780Y218920D01*
X1381780Y220250D01*
X1388780Y218920D01*
X1394780Y213590D01*
X1397780Y204250D01*
Y166920D01*
G01X1474020Y246920D02*
Y166920D01*
G01Y178920D02*
X1470020Y172250D01*
X1464020Y168250D01*
X1457020Y166920D01*
X1449020Y169590D01*
X1443020Y176250D01*
X1439020Y184250D01*
X1438020Y193590D01*
X1439020Y202920D01*
X1443020Y210920D01*
X1449020Y217590D01*
X1457020Y220250D01*
X1464020Y218920D01*
X1469020Y216250D01*
X1474020Y210920D01*
G01X1517260Y166920D02*
Y220250D01*
G01Y209590D02*
X1522260Y214920D01*
X1527260Y218920D01*
X1534260Y220250D01*
X1539260Y218920D01*
X1545260Y214920D01*
G01X1589500Y220250D02*
Y182920D01*
X1593500Y173590D01*
X1599500Y168250D01*
X1606500Y166920D01*
X1613500Y168250D01*
X1619500Y173590D01*
X1623500Y182920D01*
G01Y166920D02*
Y220250D01*
G01X1668740Y193590D02*
X1694740D01*
G01X1778980Y240250D02*
X1772980Y244250D01*
X1765980Y246920D01*
X1757980D01*
X1748980Y242920D01*
X1741980Y236250D01*
X1736980Y228250D01*
X1732980Y214920D01*
X1731980Y202920D01*
X1733980Y190920D01*
X1736980Y182920D01*
X1742980Y174920D01*
X1749980Y169590D01*
X1756980Y166920D01*
X1763980D01*
X1770980Y169590D01*
X1776980Y173590D01*
X1781980Y178920D01*
G01X1832220Y166920D02*
X1826220Y168250D01*
X1820220Y173590D01*
X1816220Y182920D01*
X1814220Y193590D01*
X1816220Y204250D01*
X1820220Y213590D01*
X1826220Y218920D01*
X1832220Y220250D01*
X1838220Y218920D01*
X1844220Y213590D01*
X1848220Y204250D01*
X1849220Y193590D01*
X1848220Y182920D01*
X1844220Y173590D01*
X1838220Y168250D01*
X1832220Y166920D01*
G01X1892460Y176250D02*
X1897460Y170920D01*
X1904460Y166920D01*
X1910460D01*
X1916460Y169590D01*
X1920460Y173590D01*
X1922460Y178920D01*
X1921460Y186920D01*
X1917460Y190920D01*
X1899460Y198920D01*
X1895460Y208250D01*
X1897460Y214920D01*
X1901460Y218920D01*
X1907460Y220250D01*
X1913460Y218920D01*
X1919460Y214920D01*
G01X1952700Y166920D02*
Y220250D01*
G01Y205590D02*
X1955700Y212250D01*
X1960700Y217590D01*
X1967700Y220250D01*
X1974700Y217590D01*
X1979700Y212250D01*
X1982700Y205590D01*
Y166920D01*
G01Y205590D02*
X1985700Y212250D01*
X1990700Y217590D01*
X1997700Y220250D01*
X2004700Y217590D01*
X2009700Y212250D01*
X2012700Y204250D01*
Y166920D01*
G01X2057940Y220250D02*
Y166920D01*
G01Y241590D02*
X2055940Y242920D01*
Y245590D01*
X2057940Y246920D01*
X2059940Y245590D01*
Y242920D01*
X2057940Y241590D01*
G01X2116180Y166920D02*
Y220250D01*
G01Y206920D02*
X2120180Y213590D01*
X2126180Y218920D01*
X2134180Y220250D01*
X2141180Y218920D01*
X2147180Y213590D01*
X2150180Y204250D01*
Y166920D01*
G01X2295660D02*
Y246920D01*
X2258660Y189590D01*
X2308660D01*
G01X2336900Y182920D02*
X2342900Y173590D01*
X2350900Y168250D01*
X2359900Y166920D01*
X2367900Y168250D01*
X2375900Y174920D01*
X2380900Y182920D01*
X2381900Y190920D01*
X2379900Y200250D01*
X2372900Y206920D01*
X2365900Y209590D01*
X2356900D01*
G01X2365900D02*
X2371900Y213590D01*
X2376900Y220250D01*
X2378900Y228250D01*
X2376900Y236250D01*
X2371900Y242920D01*
X2362900Y246920D01*
X2353900Y245590D01*
X2344900Y240250D01*
G01X2434140Y166920D02*
Y246920D01*
X2422140Y230920D01*
G01Y166920D02*
X2446140D01*
G01X2529380D02*
X2489380D01*
Y246920D01*
X2529380D01*
G01X2513380Y208250D02*
X2489380D01*
G01X2681860Y240250D02*
X2675860Y244250D01*
X2668860Y246920D01*
X2660860D01*
X2651860Y242920D01*
X2644860Y236250D01*
X2639860Y228250D01*
X2635860Y214920D01*
X2634860Y202920D01*
X2636860Y190920D01*
X2639860Y182920D01*
X2645860Y174920D01*
X2652860Y169590D01*
X2659860Y166920D01*
X2666860D01*
X2673860Y169590D01*
X2679860Y173590D01*
X2684860Y178920D01*
G01X2755100Y166920D02*
X2715100D01*
Y246920D01*
X2755100D01*
G01X2739100Y208250D02*
X2715100D01*
G01X2791340Y166920D02*
Y246920D01*
X2829340D01*
G01X2815340Y208250D02*
X2791340D01*
G01X2866580Y233590D02*
X2872580Y241590D01*
X2879580Y245590D01*
X2887580Y246920D01*
X2897580Y244250D01*
X2904580Y237590D01*
X2906580Y229590D01*
X2905580Y221580D01*
X2901580Y214920D01*
X2881580Y201590D01*
X2872580Y192250D01*
X2866580Y178920D01*
X2864580Y166920D01*
X2906580D01*
G01X2947820Y193590D02*
X2973820D01*
G01X3016060Y166920D02*
Y246920D01*
X3040060D01*
X3048060Y242920D01*
X3054060Y233590D01*
X3056060Y222920D01*
X3054060Y212250D01*
X3049060Y204250D01*
X3040060Y200250D01*
X3016060D01*
G01X3167540Y233590D02*
X3173540Y241590D01*
X3180540Y245590D01*
X3188540Y246920D01*
X3198540Y244250D01*
X3205540Y237590D01*
X3207540Y229590D01*
X3206540Y221580D01*
X3202540Y214920D01*
X3182540Y201590D01*
X3173540Y192250D01*
X3167540Y178920D01*
X3165540Y166920D01*
X3207540D01*
G01X3261780Y246920D02*
X3253780Y244250D01*
X3247780Y237590D01*
X3243780Y229590D01*
X3240780Y218920D01*
X3239780Y206920D01*
X3240780Y194920D01*
X3243780Y184250D01*
X3247780Y176250D01*
X3253780Y169590D01*
X3261780Y166920D01*
X3269780Y169590D01*
X3275780Y176250D01*
X3279780Y184250D01*
X3282780Y194920D01*
X3283780Y206920D01*
X3282780Y218920D01*
X3279780Y229590D01*
X3275780Y237590D01*
X3269780Y244250D01*
X3261780Y246920D01*
G01X3318020Y233590D02*
X3324020Y241590D01*
X3331020Y245590D01*
X3339020Y246920D01*
X3349020Y244250D01*
X3356020Y237590D01*
X3358020Y229590D01*
X3357020Y221580D01*
X3353020Y214920D01*
X3333020Y201590D01*
X3324020Y192250D01*
X3318020Y178920D01*
X3316020Y166920D01*
X3358020D01*
G01X3424260D02*
Y246920D01*
X3387260Y189590D01*
X3437260D01*
G01X3474500Y193590D02*
X3500500D01*
G01X3543740Y233590D02*
X3549740Y241590D01*
X3556740Y245590D01*
X3564740Y246920D01*
X3574740Y244250D01*
X3581740Y237590D01*
X3583740Y229590D01*
X3582740Y221580D01*
X3578740Y214920D01*
X3558740Y201590D01*
X3549740Y192250D01*
X3543740Y178920D01*
X3541740Y166920D01*
X3583740D01*
G01X3637980Y246920D02*
X3629980Y244250D01*
X3623980Y237590D01*
X3619980Y229590D01*
X3616980Y218920D01*
X3615980Y206920D01*
X3616980Y194920D01*
X3619980Y184250D01*
X3623980Y176250D01*
X3629980Y169590D01*
X3637980Y166920D01*
X3645980Y169590D01*
X3651980Y176250D01*
X3655980Y184250D01*
X3658980Y194920D01*
X3659980Y206920D01*
X3658980Y218920D01*
X3655980Y229590D01*
X3651980Y237590D01*
X3645980Y244250D01*
X3637980Y246920D01*
G01X3694220Y233590D02*
X3700220Y241590D01*
X3707220Y245590D01*
X3715220Y246920D01*
X3725220Y244250D01*
X3732220Y237590D01*
X3734220Y229590D01*
X3733220Y221580D01*
X3729220Y214920D01*
X3709220Y201590D01*
X3700220Y192250D01*
X3694220Y178920D01*
X3692220Y166920D01*
X3734220D01*
G01X3766460Y178920D02*
X3772460Y172250D01*
X3779460Y168250D01*
X3788460Y166920D01*
X3797460Y169590D01*
X3804460Y174920D01*
X3809460Y184250D01*
X3810460Y194920D01*
X3808460Y205590D01*
X3803460Y212250D01*
X3796460Y217590D01*
X3789460Y218920D01*
X3782460Y217590D01*
X3773460Y212250D01*
X3776460Y246920D01*
X3803460D01*
G01X202090Y812010D02*
Y892010D01*
X227090D01*
X235090Y888010D01*
X240090Y882680D01*
X242090Y872010D01*
X240090Y861340D01*
X234090Y854680D01*
X227090Y850680D01*
X202090D01*
G01X227090D02*
X242090Y812010D01*
G01X308350Y828010D02*
X314350Y818680D01*
X322350Y813340D01*
X331350Y812010D01*
X339350Y813340D01*
X347350Y820010D01*
X352350Y828010D01*
X353350Y836010D01*
X351350Y845340D01*
X344350Y852010D01*
X337350Y854680D01*
X328350D01*
G01X337350D02*
X343350Y858680D01*
X348350Y865340D01*
X350350Y873340D01*
X348350Y881340D01*
X343350Y888010D01*
X334350Y892010D01*
X325350Y890680D01*
X316350Y885340D01*
G01X416610Y824010D02*
X422610Y817340D01*
X429610Y813340D01*
X438610Y812010D01*
X447610Y814680D01*
X454610Y820010D01*
X459610Y829340D01*
X460610Y840010D01*
X458610Y850680D01*
X453610Y857340D01*
X446610Y862680D01*
X439610Y864010D01*
X432610Y862680D01*
X423610Y857340D01*
X426610Y892010D01*
X453610D01*
G01X395000Y1244870D02*
X400000Y1236870D01*
X406000Y1231540D01*
X413000Y1228870D01*
X421000Y1231540D01*
X427000Y1236870D01*
X433000Y1244870D01*
X435000Y1255540D01*
Y1308870D01*
G01X501260Y1244870D02*
X507260Y1235540D01*
X515260Y1230200D01*
X524260Y1228870D01*
X532260Y1230200D01*
X540260Y1236870D01*
X545260Y1244870D01*
X546260Y1252870D01*
X544260Y1262200D01*
X537260Y1268870D01*
X530260Y1271540D01*
X521260D01*
G01X530260D02*
X536260Y1275540D01*
X541260Y1282200D01*
X543260Y1290200D01*
X541260Y1298200D01*
X536260Y1304870D01*
X527260Y1308870D01*
X518260Y1307540D01*
X509260Y1302200D01*
G01X693000Y1186000D02*
Y1266000D01*
X718000D01*
X726000Y1262000D01*
X731000Y1256670D01*
X733000Y1246000D01*
X731000Y1235330D01*
X725000Y1228670D01*
X718000Y1224670D01*
X693000D01*
G01X718000D02*
X733000Y1186000D01*
G01X799260Y1202000D02*
X805260Y1192670D01*
X813260Y1187330D01*
X822260Y1186000D01*
X830260Y1187330D01*
X838260Y1194000D01*
X843260Y1202000D01*
X844260Y1210000D01*
X842260Y1219330D01*
X835260Y1226000D01*
X828260Y1228670D01*
X819260D01*
G01X828260D02*
X834260Y1232670D01*
X839260Y1239330D01*
X841260Y1247330D01*
X839260Y1255330D01*
X834260Y1262000D01*
X825260Y1266000D01*
X816260Y1264670D01*
X807260Y1259330D01*
G01X557720Y695010D02*
Y775010D01*
X577720D01*
X585720Y771010D01*
X591720Y765680D01*
X596720Y757680D01*
X600720Y748340D01*
X601720Y735010D01*
X600720Y721680D01*
X596720Y712340D01*
X591720Y704340D01*
X585720Y699010D01*
X577720Y695010D01*
X557720D01*
G01X670980Y704340D02*
X677980Y697680D01*
X685980Y695010D01*
X693980Y697680D01*
X700980Y705670D01*
X705980Y717680D01*
X707980Y729680D01*
Y744340D01*
X705980Y756340D01*
X700980Y767010D01*
X694980Y772340D01*
X687980Y775010D01*
X679980Y772340D01*
X673980Y767010D01*
X669980Y759010D01*
X667980Y748340D01*
X669980Y739010D01*
X674980Y729680D01*
X680980Y724340D01*
X687980Y723010D01*
X695980Y725670D01*
X701980Y732340D01*
X707980Y744340D01*
G01X945000Y1842000D02*
X937000Y1843330D01*
X930000Y1848670D01*
X924000Y1856670D01*
X920000Y1866000D01*
X918000Y1876670D01*
Y1887330D01*
X920000Y1898000D01*
X924000Y1907330D01*
X930000Y1915330D01*
X937000Y1920670D01*
X945000Y1922000D01*
X953000Y1920670D01*
X960000Y1915330D01*
X966000Y1907330D01*
X970000Y1898000D01*
X972000Y1887330D01*
Y1876670D01*
X970000Y1866000D01*
X966000Y1856670D01*
X960000Y1848670D01*
X953000Y1843330D01*
X945000Y1842000D01*
G01X953000Y1863330D02*
X965000Y1842000D01*
G01X1016020Y1854000D02*
X1022020Y1847330D01*
X1029020Y1843330D01*
X1038020Y1842000D01*
X1047020Y1844670D01*
X1054020Y1850000D01*
X1059020Y1859330D01*
X1060020Y1870000D01*
X1058020Y1880670D01*
X1053020Y1887330D01*
X1046020Y1892670D01*
X1039020Y1894000D01*
X1032020Y1892670D01*
X1023020Y1887330D01*
X1026020Y1922000D01*
X1053020D01*
G01X944840Y2834860D02*
X936840Y2836190D01*
X929840Y2841530D01*
X923840Y2849530D01*
X919840Y2858860D01*
X917840Y2869530D01*
Y2880190D01*
X919840Y2890860D01*
X923840Y2900190D01*
X929840Y2908190D01*
X936840Y2913530D01*
X944840Y2914860D01*
X952840Y2913530D01*
X959840Y2908190D01*
X965840Y2900190D01*
X969840Y2890860D01*
X971840Y2880190D01*
Y2869530D01*
X969840Y2858860D01*
X965840Y2849530D01*
X959840Y2841530D01*
X952840Y2836190D01*
X944840Y2834860D01*
G01X952840Y2856190D02*
X964840Y2834860D01*
G01X1018860Y2901530D02*
X1024860Y2909530D01*
X1031860Y2913530D01*
X1039860Y2914860D01*
X1049860Y2912190D01*
X1056860Y2905530D01*
X1058860Y2897530D01*
X1057860Y2889520D01*
X1053860Y2882860D01*
X1033860Y2869530D01*
X1024860Y2860190D01*
X1018860Y2846860D01*
X1016860Y2834860D01*
X1058860D01*
G01X616540Y2883610D02*
X621540Y2875610D01*
X627540Y2870280D01*
X634540Y2867610D01*
X642540Y2870280D01*
X648540Y2875610D01*
X654540Y2883610D01*
X656540Y2894280D01*
Y2947610D01*
G01X744800Y2867610D02*
Y2947610D01*
X732800Y2931610D01*
G01Y2867610D02*
X756800D01*
G01X937260Y3348350D02*
X929260Y3349680D01*
X922260Y3355020D01*
X916260Y3363020D01*
X912260Y3372350D01*
X910260Y3383020D01*
Y3393680D01*
X912260Y3404350D01*
X916260Y3413680D01*
X922260Y3421680D01*
X929260Y3427020D01*
X937260Y3428350D01*
X945260Y3427020D01*
X952260Y3421680D01*
X958260Y3413680D01*
X962260Y3404350D01*
X964260Y3393680D01*
Y3383020D01*
X962260Y3372350D01*
X958260Y3363020D01*
X952260Y3355020D01*
X945260Y3349680D01*
X937260Y3348350D01*
G01X945260Y3369680D02*
X957260Y3348350D01*
G01X1008280Y3364350D02*
X1014280Y3355020D01*
X1022280Y3349680D01*
X1031280Y3348350D01*
X1039280Y3349680D01*
X1047280Y3356350D01*
X1052280Y3364350D01*
X1053280Y3372350D01*
X1051280Y3381680D01*
X1044280Y3388350D01*
X1037280Y3391020D01*
X1028280D01*
G01X1037280D02*
X1043280Y3395020D01*
X1048280Y3401680D01*
X1050280Y3409680D01*
X1048280Y3417680D01*
X1043280Y3424350D01*
X1034280Y3428350D01*
X1025280Y3427020D01*
X1016280Y3421680D01*
G01X670000Y3740000D02*
Y3820000D01*
X695000D01*
X703000Y3816000D01*
X708000Y3810670D01*
X710000Y3800000D01*
X708000Y3789330D01*
X702000Y3782670D01*
X695000Y3778670D01*
X670000D01*
G01X695000D02*
X710000Y3740000D01*
G01X776260Y3756000D02*
X782260Y3746670D01*
X790260Y3741330D01*
X799260Y3740000D01*
X807260Y3741330D01*
X815260Y3748000D01*
X820260Y3756000D01*
X821260Y3764000D01*
X819260Y3773330D01*
X812260Y3780000D01*
X805260Y3782670D01*
X796260D01*
G01X805260D02*
X811260Y3786670D01*
X816260Y3793330D01*
X818260Y3801330D01*
X816260Y3809330D01*
X811260Y3816000D01*
X802260Y3820000D01*
X793260Y3818670D01*
X784260Y3813330D01*
G01X887520Y3806670D02*
X893520Y3814670D01*
X900520Y3818670D01*
X908520Y3820000D01*
X918520Y3817330D01*
X925520Y3810670D01*
X927520Y3802670D01*
X926520Y3794660D01*
X922520Y3788000D01*
X902520Y3774670D01*
X893520Y3765330D01*
X887520Y3752000D01*
X885520Y3740000D01*
X927520D01*
G01X1624190Y1078910D02*
Y1158910D01*
X1648190D01*
X1656190Y1154910D01*
X1662190Y1145580D01*
X1664190Y1134910D01*
X1662190Y1124240D01*
X1657190Y1116240D01*
X1648190Y1112240D01*
X1624190D01*
G01X1700430Y1145580D02*
X1706430Y1153580D01*
X1713430Y1157580D01*
X1721430Y1158910D01*
X1731430Y1156240D01*
X1738430Y1149580D01*
X1740430Y1141580D01*
X1739430Y1133570D01*
X1735430Y1126910D01*
X1715430Y1113580D01*
X1706430Y1104240D01*
X1700430Y1090910D01*
X1698430Y1078910D01*
X1740430D01*
G01X1533000Y1557000D02*
Y1637000D01*
X1558000D01*
X1566000Y1633000D01*
X1571000Y1627670D01*
X1573000Y1617000D01*
X1571000Y1606330D01*
X1565000Y1599670D01*
X1558000Y1595670D01*
X1533000D01*
G01X1558000D02*
X1573000Y1557000D01*
G01X1639260Y1569000D02*
X1645260Y1562330D01*
X1652260Y1558330D01*
X1661260Y1557000D01*
X1670260Y1559670D01*
X1677260Y1565000D01*
X1682260Y1574330D01*
X1683260Y1585000D01*
X1681260Y1595670D01*
X1676260Y1602330D01*
X1669260Y1607670D01*
X1662260Y1609000D01*
X1655260Y1607670D01*
X1646260Y1602330D01*
X1649260Y1637000D01*
X1676260D01*
G01X1836000Y1639690D02*
Y1719690D01*
X1861000D01*
X1869000Y1715690D01*
X1874000Y1710360D01*
X1876000Y1699690D01*
X1874000Y1689020D01*
X1868000Y1682360D01*
X1861000Y1678360D01*
X1836000D01*
G01X1861000D02*
X1876000Y1639690D01*
G01X1964260D02*
X1971260Y1641020D01*
X1979260Y1645020D01*
X1984260Y1651690D01*
X1986260Y1661020D01*
X1984260Y1670350D01*
X1978260Y1678360D01*
X1969260Y1682360D01*
X1959260D01*
X1953260Y1685020D01*
X1948260Y1691690D01*
X1946260Y1701020D01*
X1949260Y1710360D01*
X1956260Y1717020D01*
X1964260Y1719690D01*
X1972260Y1717020D01*
X1979260Y1710360D01*
X1982260Y1701020D01*
X1980260Y1691690D01*
X1975260Y1685020D01*
X1969260Y1682360D01*
X1959260D01*
X1950260Y1678360D01*
X1944260Y1670350D01*
X1942260Y1661020D01*
X1944260Y1651690D01*
X1949260Y1645020D01*
X1957260Y1641020D01*
X1964260Y1639690D01*
G01X1176000Y1751000D02*
Y1831000D01*
X1201000D01*
X1209000Y1827000D01*
X1214000Y1821670D01*
X1216000Y1811000D01*
X1214000Y1800330D01*
X1208000Y1793670D01*
X1201000Y1789670D01*
X1176000D01*
G01X1201000D02*
X1216000Y1751000D01*
G01X1316260D02*
Y1831000D01*
X1279260Y1773670D01*
X1329260D01*
G01X1770000Y2385000D02*
X1762000Y2386330D01*
X1755000Y2391670D01*
X1749000Y2399670D01*
X1745000Y2409000D01*
X1743000Y2419670D01*
Y2430330D01*
X1745000Y2441000D01*
X1749000Y2450330D01*
X1755000Y2458330D01*
X1762000Y2463670D01*
X1770000Y2465000D01*
X1778000Y2463670D01*
X1785000Y2458330D01*
X1791000Y2450330D01*
X1795000Y2441000D01*
X1797000Y2430330D01*
Y2419670D01*
X1795000Y2409000D01*
X1791000Y2399670D01*
X1785000Y2391670D01*
X1778000Y2386330D01*
X1770000Y2385000D01*
G01X1778000Y2406330D02*
X1790000Y2385000D01*
G01X1863020D02*
Y2465000D01*
X1851020Y2449000D01*
G01Y2385000D02*
X1875020D01*
G01X1404000Y2235000D02*
X1396000Y2236330D01*
X1389000Y2241670D01*
X1383000Y2249670D01*
X1379000Y2259000D01*
X1377000Y2269670D01*
Y2280330D01*
X1379000Y2291000D01*
X1383000Y2300330D01*
X1389000Y2308330D01*
X1396000Y2313670D01*
X1404000Y2315000D01*
X1412000Y2313670D01*
X1419000Y2308330D01*
X1425000Y2300330D01*
X1429000Y2291000D01*
X1431000Y2280330D01*
Y2269670D01*
X1429000Y2259000D01*
X1425000Y2249670D01*
X1419000Y2241670D01*
X1412000Y2236330D01*
X1404000Y2235000D01*
G01X1412000Y2256330D02*
X1424000Y2235000D01*
G01X1478020Y2268330D02*
X1485020Y2277670D01*
X1491020Y2283000D01*
X1499020Y2285670D01*
X1506020Y2283000D01*
X1511020Y2277670D01*
X1515020Y2269670D01*
X1516020Y2260330D01*
X1515020Y2252330D01*
X1511020Y2244330D01*
X1505020Y2237670D01*
X1498020Y2235000D01*
X1490020Y2237670D01*
X1483020Y2245660D01*
X1479020Y2257670D01*
X1478020Y2271000D01*
X1480020Y2288330D01*
X1483020Y2297670D01*
X1488020Y2307000D01*
X1495020Y2313670D01*
X1502020Y2315000D01*
X1509020Y2312330D01*
X1514020Y2305670D01*
G01X1730000Y3359000D02*
Y3439000D01*
X1755000D01*
X1763000Y3435000D01*
X1768000Y3429670D01*
X1770000Y3419000D01*
X1768000Y3408330D01*
X1762000Y3401670D01*
X1755000Y3397670D01*
X1730000D01*
G01X1755000D02*
X1770000Y3359000D01*
G01X1858260D02*
Y3439000D01*
X1846260Y3423000D01*
G01Y3359000D02*
X1870260D01*
G01X1300000Y3337000D02*
Y3417000D01*
X1320000D01*
X1328000Y3413000D01*
X1334000Y3407670D01*
X1339000Y3399670D01*
X1343000Y3390330D01*
X1344000Y3377000D01*
X1343000Y3363670D01*
X1339000Y3354330D01*
X1334000Y3346330D01*
X1328000Y3341000D01*
X1320000Y3337000D01*
X1300000D01*
G01X1430260D02*
X1437260Y3338330D01*
X1445260Y3342330D01*
X1450260Y3349000D01*
X1452260Y3358330D01*
X1450260Y3367660D01*
X1444260Y3375670D01*
X1435260Y3379670D01*
X1425260D01*
X1419260Y3382330D01*
X1414260Y3389000D01*
X1412260Y3398330D01*
X1415260Y3407670D01*
X1422260Y3414330D01*
X1430260Y3417000D01*
X1438260Y3414330D01*
X1445260Y3407670D01*
X1448260Y3398330D01*
X1446260Y3389000D01*
X1441260Y3382330D01*
X1435260Y3379670D01*
X1425260D01*
X1416260Y3375670D01*
X1410260Y3367660D01*
X1408260Y3358330D01*
X1410260Y3349000D01*
X1415260Y3342330D01*
X1423260Y3338330D01*
X1430260Y3337000D01*
G01X1515000Y3225000D02*
X1507000Y3226330D01*
X1500000Y3231670D01*
X1494000Y3239670D01*
X1490000Y3249000D01*
X1488000Y3259670D01*
Y3270330D01*
X1490000Y3281000D01*
X1494000Y3290330D01*
X1500000Y3298330D01*
X1507000Y3303670D01*
X1515000Y3305000D01*
X1523000Y3303670D01*
X1530000Y3298330D01*
X1536000Y3290330D01*
X1540000Y3281000D01*
X1542000Y3270330D01*
Y3259670D01*
X1540000Y3249000D01*
X1536000Y3239670D01*
X1530000Y3231670D01*
X1523000Y3226330D01*
X1515000Y3225000D01*
G01X1523000Y3246330D02*
X1535000Y3225000D01*
G01X1620020D02*
Y3305000D01*
X1583020Y3247670D01*
X1633020D01*
G01X2684050Y581170D02*
X2678050Y585170D01*
X2671050Y587840D01*
X2663050D01*
X2654050Y583840D01*
X2647050Y577170D01*
X2642050Y569170D01*
X2638050Y555840D01*
X2637050Y543840D01*
X2639050Y531840D01*
X2642050Y523840D01*
X2648050Y515840D01*
X2655050Y510510D01*
X2662050Y507840D01*
X2669050D01*
X2676050Y510510D01*
X2682050Y514510D01*
X2687050Y519840D01*
G01X2748310D02*
X2754310Y513170D01*
X2761310Y509170D01*
X2770310Y507840D01*
X2779310Y510510D01*
X2786310Y515840D01*
X2791310Y525170D01*
X2792310Y535840D01*
X2790310Y546510D01*
X2785310Y553170D01*
X2778310Y558510D01*
X2771310Y559840D01*
X2764310Y558510D01*
X2755310Y553170D01*
X2758310Y587840D01*
X2785310D01*
G01X1985470Y407350D02*
X1979470Y411350D01*
X1972470Y414020D01*
X1964470D01*
X1955470Y410020D01*
X1948470Y403350D01*
X1943470Y395350D01*
X1939470Y382020D01*
X1938470Y370020D01*
X1940470Y358020D01*
X1943470Y350020D01*
X1949470Y342020D01*
X1956470Y336690D01*
X1963470Y334020D01*
X1970470D01*
X1977470Y336690D01*
X1983470Y340690D01*
X1988470Y346020D01*
G01X2052730Y400690D02*
X2058730Y408690D01*
X2065730Y412690D01*
X2073730Y414020D01*
X2083730Y411350D01*
X2090730Y404690D01*
X2092730Y396690D01*
X2091730Y388680D01*
X2087730Y382020D01*
X2067730Y368690D01*
X2058730Y359350D01*
X2052730Y346020D01*
X2050730Y334020D01*
X2092730D01*
G01X2392000Y955000D02*
Y1035000D01*
X2416000D01*
X2424000Y1031000D01*
X2430000Y1021670D01*
X2432000Y1011000D01*
X2430000Y1000330D01*
X2425000Y992330D01*
X2416000Y988330D01*
X2392000D01*
G01X2487240Y955000D02*
Y1035000D01*
X2475240Y1019000D01*
G01Y955000D02*
X2499240D01*
G01X2561790Y1781090D02*
Y1701090D01*
G01X2538790Y1781090D02*
X2584790D01*
G01X2652810Y1701090D02*
X2654810Y1718420D01*
X2657810Y1733090D01*
X2661810Y1746420D01*
X2666810Y1761090D01*
X2674810Y1781090D01*
X2634810D01*
G01X2585230Y2265960D02*
Y2345960D01*
X2610230D01*
X2618230Y2341960D01*
X2623230Y2336630D01*
X2625230Y2325960D01*
X2623230Y2315290D01*
X2617230Y2308630D01*
X2610230Y2304630D01*
X2585230D01*
G01X2610230D02*
X2625230Y2265960D01*
G01X2711490D02*
X2713490Y2283290D01*
X2716490Y2297960D01*
X2720490Y2311290D01*
X2725490Y2325960D01*
X2733490Y2345960D01*
X2693490D01*
G01X2260950Y2606880D02*
X2252950Y2608210D01*
X2245950Y2613550D01*
X2239950Y2621550D01*
X2235950Y2630880D01*
X2233950Y2641550D01*
Y2652210D01*
X2235950Y2662880D01*
X2239950Y2672210D01*
X2245950Y2680210D01*
X2252950Y2685550D01*
X2260950Y2686880D01*
X2268950Y2685550D01*
X2275950Y2680210D01*
X2281950Y2672210D01*
X2285950Y2662880D01*
X2287950Y2652210D01*
Y2641550D01*
X2285950Y2630880D01*
X2281950Y2621550D01*
X2275950Y2613550D01*
X2268950Y2608210D01*
X2260950Y2606880D01*
G01X2268950Y2628210D02*
X2280950Y2606880D01*
G01X2353970D02*
X2360970Y2608210D01*
X2368970Y2612210D01*
X2373970Y2618880D01*
X2375970Y2628210D01*
X2373970Y2637540D01*
X2367970Y2645550D01*
X2358970Y2649550D01*
X2348970D01*
X2342970Y2652210D01*
X2337970Y2658880D01*
X2335970Y2668210D01*
X2338970Y2677550D01*
X2345970Y2684210D01*
X2353970Y2686880D01*
X2361970Y2684210D01*
X2368970Y2677550D01*
X2371970Y2668210D01*
X2369970Y2658880D01*
X2364970Y2652210D01*
X2358970Y2649550D01*
X2348970D01*
X2339970Y2645550D01*
X2333970Y2637540D01*
X2331970Y2628210D01*
X2333970Y2618880D01*
X2338970Y2612210D01*
X2346970Y2608210D01*
X2353970Y2606880D01*
G01X2440000Y2947000D02*
Y3027000D01*
X2465000D01*
X2473000Y3023000D01*
X2478000Y3017670D01*
X2480000Y3007000D01*
X2478000Y2996330D01*
X2472000Y2989670D01*
X2465000Y2985670D01*
X2440000D01*
G01X2465000D02*
X2480000Y2947000D01*
G01X2549260Y2980330D02*
X2556260Y2989670D01*
X2562260Y2995000D01*
X2570260Y2997670D01*
X2577260Y2995000D01*
X2582260Y2989670D01*
X2586260Y2981670D01*
X2587260Y2972330D01*
X2586260Y2964330D01*
X2582260Y2956330D01*
X2576260Y2949670D01*
X2569260Y2947000D01*
X2561260Y2949670D01*
X2554260Y2957660D01*
X2550260Y2969670D01*
X2549260Y2983000D01*
X2551260Y3000330D01*
X2554260Y3009670D01*
X2559260Y3019000D01*
X2566260Y3025670D01*
X2573260Y3027000D01*
X2580260Y3024330D01*
X2585260Y3017670D01*
G01X2071000Y3326330D02*
X2065000Y3330330D01*
X2058000Y3333000D01*
X2050000D01*
X2041000Y3329000D01*
X2034000Y3322330D01*
X2029000Y3314330D01*
X2025000Y3301000D01*
X2024000Y3289000D01*
X2026000Y3277000D01*
X2029000Y3269000D01*
X2035000Y3261000D01*
X2042000Y3255670D01*
X2049000Y3253000D01*
X2056000D01*
X2063000Y3255670D01*
X2069000Y3259670D01*
X2074000Y3265000D01*
G01X2157260Y3253000D02*
Y3333000D01*
X2145260Y3317000D01*
G01Y3253000D02*
X2169260D01*
G01X1976920Y3733290D02*
Y3813290D01*
X2001920D01*
X2009920Y3809290D01*
X2014920Y3803960D01*
X2016920Y3793290D01*
X2014920Y3782620D01*
X2008920Y3775960D01*
X2001920Y3771960D01*
X1976920D01*
G01X2001920D02*
X2016920Y3733290D01*
G01X2086180Y3799960D02*
X2092180Y3807960D01*
X2099180Y3811960D01*
X2107180Y3813290D01*
X2117180Y3810620D01*
X2124180Y3803960D01*
X2126180Y3795960D01*
X2125180Y3787950D01*
X2121180Y3781290D01*
X2101180Y3767960D01*
X2092180Y3758620D01*
X2086180Y3745290D01*
X2084180Y3733290D01*
X2126180D01*
G01X3159000Y442000D02*
Y522000D01*
X3183000D01*
X3191000Y518000D01*
X3197000Y508670D01*
X3199000Y498000D01*
X3197000Y487330D01*
X3192000Y479330D01*
X3183000Y475330D01*
X3159000D01*
G01X3232240Y458000D02*
X3238240Y448670D01*
X3246240Y443330D01*
X3255240Y442000D01*
X3263240Y443330D01*
X3271240Y450000D01*
X3276240Y458000D01*
X3277240Y466000D01*
X3275240Y475330D01*
X3268240Y482000D01*
X3261240Y484670D01*
X3252240D01*
G01X3261240D02*
X3267240Y488670D01*
X3272240Y495330D01*
X3274240Y503330D01*
X3272240Y511330D01*
X3267240Y518000D01*
X3258240Y522000D01*
X3249240Y520670D01*
X3240240Y515330D01*
G01X3151990Y1787800D02*
X3145990Y1791800D01*
X3138990Y1794470D01*
X3130990D01*
X3121990Y1790470D01*
X3114990Y1783800D01*
X3109990Y1775800D01*
X3105990Y1762470D01*
X3104990Y1750470D01*
X3106990Y1738470D01*
X3109990Y1730470D01*
X3115990Y1722470D01*
X3122990Y1717140D01*
X3129990Y1714470D01*
X3136990D01*
X3143990Y1717140D01*
X3149990Y1721140D01*
X3154990Y1726470D01*
G01X3250250Y1714470D02*
Y1794470D01*
X3213250Y1737140D01*
X3263250D01*
G01X3077900Y2329470D02*
Y2409470D01*
X3097900D01*
X3105900Y2405470D01*
X3111900Y2400140D01*
X3116900Y2392140D01*
X3120900Y2382800D01*
X3121900Y2369470D01*
X3120900Y2356140D01*
X3116900Y2346800D01*
X3111900Y2338800D01*
X3105900Y2333470D01*
X3097900Y2329470D01*
X3077900D01*
G01X3186160Y2345470D02*
X3192160Y2336140D01*
X3200160Y2330800D01*
X3209160Y2329470D01*
X3217160Y2330800D01*
X3225160Y2337470D01*
X3230160Y2345470D01*
X3231160Y2353470D01*
X3229160Y2362800D01*
X3222160Y2369470D01*
X3215160Y2372140D01*
X3206160D01*
G01X3215160D02*
X3221160Y2376140D01*
X3226160Y2382800D01*
X3228160Y2390800D01*
X3226160Y2398800D01*
X3221160Y2405470D01*
X3212160Y2409470D01*
X3203160Y2408140D01*
X3194160Y2402800D01*
G01X3203000Y3039000D02*
Y3119000D01*
X3228000D01*
X3236000Y3115000D01*
X3241000Y3109670D01*
X3243000Y3099000D01*
X3241000Y3088330D01*
X3235000Y3081670D01*
X3228000Y3077670D01*
X3203000D01*
G01X3228000D02*
X3243000Y3039000D01*
G01X3314260Y3048330D02*
X3321260Y3041670D01*
X3329260Y3039000D01*
X3337260Y3041670D01*
X3344260Y3049660D01*
X3349260Y3061670D01*
X3351260Y3073670D01*
Y3088330D01*
X3349260Y3100330D01*
X3344260Y3111000D01*
X3338260Y3116330D01*
X3331260Y3119000D01*
X3323260Y3116330D01*
X3317260Y3111000D01*
X3313260Y3103000D01*
X3311260Y3092330D01*
X3313260Y3083000D01*
X3318260Y3073670D01*
X3324260Y3068330D01*
X3331260Y3067000D01*
X3339260Y3069660D01*
X3345260Y3076330D01*
X3351260Y3088330D01*
G01X2830000Y3296000D02*
X2822000Y3297330D01*
X2815000Y3302670D01*
X2809000Y3310670D01*
X2805000Y3320000D01*
X2803000Y3330670D01*
Y3341330D01*
X2805000Y3352000D01*
X2809000Y3361330D01*
X2815000Y3369330D01*
X2822000Y3374670D01*
X2830000Y3376000D01*
X2838000Y3374670D01*
X2845000Y3369330D01*
X2851000Y3361330D01*
X2855000Y3352000D01*
X2857000Y3341330D01*
Y3330670D01*
X2855000Y3320000D01*
X2851000Y3310670D01*
X2845000Y3302670D01*
X2838000Y3297330D01*
X2830000Y3296000D01*
G01X2838000Y3317330D02*
X2850000Y3296000D01*
G01X2921020D02*
X2923020Y3313330D01*
X2926020Y3328000D01*
X2930020Y3341330D01*
X2935020Y3356000D01*
X2943020Y3376000D01*
X2903020D01*
G01X3079900Y3168420D02*
Y3248420D01*
X3104900D01*
X3112900Y3244420D01*
X3117900Y3239090D01*
X3119900Y3228420D01*
X3117900Y3217750D01*
X3111900Y3211090D01*
X3104900Y3207090D01*
X3079900D01*
G01X3104900D02*
X3119900Y3168420D01*
G01X3156140Y3235090D02*
X3162140Y3243090D01*
X3169140Y3247090D01*
X3177140Y3248420D01*
X3187140Y3245750D01*
X3194140Y3239090D01*
X3196140Y3231090D01*
X3195140Y3223080D01*
X3191140Y3216420D01*
X3171140Y3203090D01*
X3162140Y3193750D01*
X3156140Y3180420D01*
X3154140Y3168420D01*
X3196140D01*
G01X3231380Y3201750D02*
X3238380Y3211090D01*
X3244380Y3216420D01*
X3252380Y3219090D01*
X3259380Y3216420D01*
X3264380Y3211090D01*
X3268380Y3203090D01*
X3269380Y3193750D01*
X3268380Y3185750D01*
X3264380Y3177750D01*
X3258380Y3171090D01*
X3251380Y3168420D01*
X3243380Y3171090D01*
X3236380Y3179080D01*
X3232380Y3191090D01*
X3231380Y3204420D01*
X3233380Y3221750D01*
X3236380Y3231090D01*
X3241380Y3240420D01*
X3248380Y3247090D01*
X3255380Y3248420D01*
X3262380Y3245750D01*
X3267380Y3239090D01*
G01X2703000Y3764000D02*
X2695000Y3765330D01*
X2688000Y3770670D01*
X2682000Y3778670D01*
X2678000Y3788000D01*
X2676000Y3798670D01*
Y3809330D01*
X2678000Y3820000D01*
X2682000Y3829330D01*
X2688000Y3837330D01*
X2695000Y3842670D01*
X2703000Y3844000D01*
X2711000Y3842670D01*
X2718000Y3837330D01*
X2724000Y3829330D01*
X2728000Y3820000D01*
X2730000Y3809330D01*
Y3798670D01*
X2728000Y3788000D01*
X2724000Y3778670D01*
X2718000Y3770670D01*
X2711000Y3765330D01*
X2703000Y3764000D01*
G01X2711000Y3785330D02*
X2723000Y3764000D01*
G01X2779020Y3773330D02*
X2786020Y3766670D01*
X2794020Y3764000D01*
X2802020Y3766670D01*
X2809020Y3774660D01*
X2814020Y3786670D01*
X2816020Y3798670D01*
Y3813330D01*
X2814020Y3825330D01*
X2809020Y3836000D01*
X2803020Y3841330D01*
X2796020Y3844000D01*
X2788020Y3841330D01*
X2782020Y3836000D01*
X2778020Y3828000D01*
X2776020Y3817330D01*
X2778020Y3808000D01*
X2783020Y3798670D01*
X2789020Y3793330D01*
X2796020Y3792000D01*
X2804020Y3794660D01*
X2810020Y3801330D01*
X2816020Y3813330D01*
G01X3624730Y1493140D02*
X3629730Y1485140D01*
X3635730Y1479810D01*
X3642730Y1477140D01*
X3650730Y1479810D01*
X3656730Y1485140D01*
X3662730Y1493140D01*
X3664730Y1503810D01*
Y1557140D01*
G01X3733990Y1543810D02*
X3739990Y1551810D01*
X3746990Y1555810D01*
X3754990Y1557140D01*
X3764990Y1554470D01*
X3771990Y1547810D01*
X3773990Y1539810D01*
X3772990Y1531800D01*
X3768990Y1525140D01*
X3748990Y1511810D01*
X3739990Y1502470D01*
X3733990Y1489140D01*
X3731990Y1477140D01*
X3773990D01*
G01X3492490Y2578480D02*
Y2658480D01*
X3517490D01*
X3525490Y2654480D01*
X3530490Y2649150D01*
X3532490Y2638480D01*
X3530490Y2627810D01*
X3524490Y2621150D01*
X3517490Y2617150D01*
X3492490D01*
G01X3517490D02*
X3532490Y2578480D01*
G01X3601750Y2645150D02*
X3607750Y2653150D01*
X3614750Y2657150D01*
X3622750Y2658480D01*
X3632750Y2655810D01*
X3639750Y2649150D01*
X3641750Y2641150D01*
X3640750Y2633140D01*
X3636750Y2626480D01*
X3616750Y2613150D01*
X3607750Y2603810D01*
X3601750Y2590480D01*
X3599750Y2578480D01*
X3641750D01*
G01X3710010Y2645150D02*
X3716010Y2653150D01*
X3723010Y2657150D01*
X3731010Y2658480D01*
X3741010Y2655810D01*
X3748010Y2649150D01*
X3750010Y2641150D01*
X3749010Y2633140D01*
X3745010Y2626480D01*
X3725010Y2613150D01*
X3716010Y2603810D01*
X3710010Y2590480D01*
X3708010Y2578480D01*
X3750010D01*
G01X1067370Y2268350D02*
Y1963550D01*
X925130D01*
Y2268350D01*
X1067370D01*
G01X891980Y2502120D02*
Y2806920D01*
X1034220D01*
Y2502120D01*
X891980D01*
G01X884400Y3015610D02*
Y3320410D01*
X1026640D01*
Y3015610D01*
X884400D01*
G01X1436980Y1888120D02*
Y2192920D01*
X1579220D01*
Y1888120D01*
X1436980D01*
G01X1416980Y2437120D02*
Y2741920D01*
X1559220D01*
Y2437120D01*
X1416980D01*
G01X1499370Y2865190D02*
Y3169990D01*
X1641610D01*
Y2865190D01*
X1499370D01*
G01X2686830Y2164760D02*
Y1859960D01*
X2544590D01*
Y2164760D01*
X2686830D01*
G01X1924390Y2526270D02*
X2229190D01*
Y2384030D01*
X1924390D01*
Y2526270D01*
G01X2412120Y3707020D02*
X2716920D01*
Y3564780D01*
X2412120D01*
Y3707020D01*
G01X2481980Y3058120D02*
Y3362920D01*
X2624220D01*
Y3058120D01*
X2481980D01*
G54D11*
G01X1583500Y601000D02*
Y491000D01*
X1083500D01*
Y521000D01*
G01Y716000D02*
Y766000D01*
G01X1583500Y881000D02*
Y991000D01*
X1083500D01*
Y961000D01*
G01X1333500Y626000D02*
Y851000D01*
G01X1448500Y741000D02*
X1218500D01*
G01X1333500Y591000D02*
G03X1483500Y741000I0J150000D01*
G03X1328500Y891000I-150081J0D01*
G03X1183500Y741000I4915J-149834D01*
G03X1333500Y591000I150000J0D01*
G01X2304560Y1231470D02*
Y1456470D01*
G01Y1196470D02*
G03X2454560Y1346470I0J150000D01*
G03X2299560Y1496470I-150081J0D01*
G03X2154560Y1346470I4915J-149834D01*
G03X2304560Y1196470I150000J0D01*
G01X2054560Y1321470D02*
Y1371470D01*
G01X2554560Y1206470D02*
Y1096470D01*
X2054560D01*
Y1126470D01*
G01X2419560Y1346470D02*
X2189560D01*
G01X2554560Y1486470D02*
Y1596470D01*
X2054560D01*
Y1566470D01*
G01X3280000Y1025500D02*
X3505000D01*
G01X3395000Y910500D02*
Y1140500D01*
G01X3245000Y1025500D02*
G03X3395000Y875500I150000J0D01*
G03X3545000Y1030500I0J150081D01*
G03X3395000Y1175500I-149834J-4915D01*
G03X3245000Y1025500I0J-150000D01*
G01X3370000Y1275500D02*
X3420000D01*
G01X3255000Y775500D02*
X3145000D01*
Y1275500D01*
X3175000D01*
G01X3352430Y3459210D02*
Y3684210D01*
G01X3467430Y3574210D02*
X3237430D01*
G01X3352430Y3424210D02*
G03X3502430Y3574210I0J150000D01*
G03X3347430Y3724210I-150081J0D01*
G03X3202430Y3574210I4915J-149834D01*
G03X3352430Y3424210I150000J0D01*
G01X3102430Y3549210D02*
Y3599210D01*
G01X3602430Y3434210D02*
Y3324210D01*
X3102430D01*
Y3354210D01*
G01X3602430Y3714210D02*
Y3824210D01*
X3102430D01*
Y3794210D01*
G01X3535000Y775500D02*
X3645000D01*
Y1275500D01*
X3615000D01*
G54D12*
G01X628850Y377820D02*
X227530D01*
G01D02*
Y489580D01*
G01D02*
X205940Y511170D01*
G01D02*
X227530Y532760D01*
G01D02*
Y644520D01*
G01X602230Y944040D02*
X195830D01*
G01D02*
Y1134540D01*
G01D02*
X602230D01*
G01X227530Y644520D02*
X628850D01*
G01X194500Y1390130D02*
X575500D01*
G01X194500Y2266430D02*
Y1390130D01*
G01X195450Y3294620D02*
Y2418320D01*
G01D02*
X576450D01*
G01X575500Y2266430D02*
X194500D01*
G01X576450Y3294620D02*
X195450D01*
G01X612880Y3625750D02*
X206480D01*
G01D02*
Y3816250D01*
G01D02*
X612880D01*
G01X628850Y644520D02*
Y377820D01*
G01X602230Y1134540D02*
Y944040D01*
G01X864250Y1720880D02*
Y1314480D01*
G01D02*
X673750D01*
G01D02*
Y1720880D01*
G01X1156250Y1313480D02*
X965750D01*
G01D02*
Y1719880D01*
G01X575500Y1390130D02*
Y2266430D01*
G01X673750Y1720880D02*
X864250D01*
G01X965750Y1719880D02*
X1156250D01*
G01X576450Y2418320D02*
Y3294620D01*
G01X1365600Y3474650D02*
X964280D01*
G01D02*
Y3741350D01*
G01X612880Y3816250D02*
Y3625750D01*
G01X964280Y3741350D02*
X1365600D01*
G01X2080560Y483170D02*
X1890060D01*
G01D02*
Y889570D01*
G01X1156250Y1719880D02*
Y1313480D01*
G01X1890060Y889570D02*
X2080560D01*
G01X1315120Y1526250D02*
X1721520D01*
G01D02*
Y1335750D01*
G01D02*
X1315120D01*
G01D02*
Y1526250D01*
G01X2240020Y1863210D02*
X1833620D01*
G01D02*
Y2053710D01*
G01D02*
X2240020D01*
G01X1692250Y3769880D02*
Y3363480D01*
G01D02*
X1501750D01*
G01D02*
Y3769880D01*
G01X2233900Y3474270D02*
X1827500D01*
G01D02*
Y3664770D01*
G01X1365600Y3629590D02*
X1387190Y3608000D01*
G01D02*
X1365600Y3586410D01*
G01D02*
Y3474650D01*
G01X1501750Y3769880D02*
X1692250D01*
G01X1827500Y3664770D02*
X2233900D01*
G01X1365600Y3741350D02*
Y3629590D01*
G01X2080560Y889570D02*
Y483170D01*
G01X2992900Y713430D02*
X2586500D01*
G01D02*
Y903930D01*
G01D02*
X2992900D01*
G01X2240020Y2053710D02*
Y1863210D01*
G01X2860090Y2394660D02*
X2453690D01*
G01D02*
Y2585160D01*
G01D02*
X2860090D01*
G01X2876800Y2715540D02*
X2470400D01*
G01D02*
Y2906040D01*
G01X1998660Y2764940D02*
Y3171340D01*
G01X2189160D02*
Y2764940D01*
G01D02*
X1998660D01*
G01X2233900Y3664770D02*
Y3474270D01*
G01X2470400Y2906040D02*
X2876800D01*
G01X1998660Y3171340D02*
X2189160D01*
G01X2992900Y903930D02*
Y713430D01*
G01X2811830Y1634220D02*
X3218230D01*
G01D02*
Y1443720D01*
G01D02*
X2811830D01*
G01D02*
Y1634220D01*
G01X3045290Y1845100D02*
Y2246420D01*
G01X3306910D02*
Y1845100D01*
G01D02*
X3045290D01*
G01X2860090Y2585160D02*
Y2394660D01*
G01X2876800Y2906040D02*
Y2715540D01*
G01X3432490Y2802420D02*
X3026090D01*
G01D02*
Y2992920D01*
G01X3432490D02*
Y2802420D01*
G01X3045290Y2246420D02*
X3154510D01*
G01D02*
X3176100Y2268010D01*
G01D02*
X3197690Y2246420D01*
G01D02*
X3306910D01*
G01X3026090Y2992920D02*
X3432490D01*
G01X3459360Y2512490D02*
Y1636190D01*
G01D02*
X3840360D01*
G01D02*
Y2512490D01*
G01D02*
X3459360D01*
G01X3576120Y2729880D02*
Y3136280D01*
G01X3766620D02*
Y2729880D01*
G01D02*
X3576120D01*
G01Y3136280D02*
X3766620D01*
M02*
