G04 ================== begin FILE IDENTIFICATION RECORD ==================*
G04 Layout Name:  NISIPEANU_ALEXANDRU_P1_N15.brd*
G04 Film Name:    FAB*
G04 File Format:  Gerber RS274X*
G04 File Origin:  Cadence Allegro 17.2-S025*
G04 Origin Date:  Sat Dec 14 20:27:41 2024*
G04 *
G04 Layer:  MANUFACTURING/NCDRILL_LEGEND*
G04 Layer:  MANUFACTURING/NCDRILL_FIGURE*
G04 Layer:  MANUFACTURING/XSECTION_CHART*
G04 Layer:  MANUFACTURING/NCLEGEND-1-2*
G04 Layer:  DRAWING FORMAT/OUTLINE*
G04 *
G04 Offset:    (0.0000 0.0000)*
G04 Mirror:    No*
G04 Mode:      Positive*
G04 Rotation:  0*
G04 FullContactRelief:  No*
G04 UndefLineWidth:     0.1000*
G04 ================== end FILE IDENTIFICATION RECORD ====================*
%FSLAX25Y25*MOMM*%
%IR0*IPPOS*OFA0.00000B0.00000*MIA0B0*SFA1.00000B1.00000*%
%AMMACRO10*
1,1,.1,.635,0.0*
20,1,.1,.635,0.0,.625353,-.110267,0.0*
1,1,.1,.625353,-.110267*
20,1,.1,.625353,-.110267,.596705,-.217183,0.0*
1,1,.1,.596705,-.217183*
20,1,.1,.596705,-.217183,.549926,-.3175,0.0*
1,1,.1,.549926,-.3175*
20,1,.1,.549926,-.3175,.486438,-.40817,0.0*
1,1,.1,.486438,-.40817*
20,1,.1,.486438,-.40817,.40817,-.486438,0.0*
1,1,.1,.40817,-.486438*
20,1,.1,.40817,-.486438,.3175,-.549926,0.0*
1,1,.1,.3175,-.549926*
20,1,.1,.3175,-.549926,.217183,-.596705,0.0*
1,1,.1,.217183,-.596705*
20,1,.1,.217183,-.596705,.110267,-.625353,0.0*
1,1,.1,.110267,-.625353*
20,1,.1,.110267,-.625353,0.0,-.635,0.0*
1,1,.1,0.0,-.635*
20,1,.1,0.0,-.635,-.110267,-.625353,0.0*
1,1,.1,-.110267,-.625353*
20,1,.1,-.110267,-.625353,-.217183,-.596705,0.0*
1,1,.1,-.217183,-.596705*
20,1,.1,-.217183,-.596705,-.3175,-.549926,0.0*
1,1,.1,-.3175,-.549926*
20,1,.1,-.3175,-.549926,-.40817,-.486438,0.0*
1,1,.1,-.40817,-.486438*
20,1,.1,-.40817,-.486438,-.486438,-.40817,0.0*
1,1,.1,-.486438,-.40817*
20,1,.1,-.486438,-.40817,-.549926,-.3175,0.0*
1,1,.1,-.549926,-.3175*
20,1,.1,-.549926,-.3175,-.596705,-.217183,0.0*
1,1,.1,-.596705,-.217183*
20,1,.1,-.596705,-.217183,-.625353,-.110267,0.0*
1,1,.1,-.625353,-.110267*
20,1,.1,-.625353,-.110267,-.635,0.0,0.0*
1,1,.1,-.635,0.0*
20,1,.1,-.635,0.0,-.625353,.110267,0.0*
1,1,.1,-.625353,.110267*
20,1,.1,-.625353,.110267,-.596705,.217183,0.0*
1,1,.1,-.596705,.217183*
20,1,.1,-.596705,.217183,-.549926,.3175,0.0*
1,1,.1,-.549926,.3175*
20,1,.1,-.549926,.3175,-.486438,.40817,0.0*
1,1,.1,-.486438,.40817*
20,1,.1,-.486438,.40817,-.40817,.486438,0.0*
1,1,.1,-.40817,.486438*
20,1,.1,-.40817,.486438,-.3175,.549926,0.0*
1,1,.1,-.3175,.549926*
20,1,.1,-.3175,.549926,-.217183,.596705,0.0*
1,1,.1,-.217183,.596705*
20,1,.1,-.217183,.596705,-.110267,.625353,0.0*
1,1,.1,-.110267,.625353*
20,1,.1,-.110267,.625353,0.0,.635,0.0*
1,1,.1,0.0,.635*
20,1,.1,0.0,.635,.110267,.625353,0.0*
1,1,.1,.110267,.625353*
20,1,.1,.110267,.625353,.217183,.596705,0.0*
1,1,.1,.217183,.596705*
20,1,.1,.217183,.596705,.3175,.549926,0.0*
1,1,.1,.3175,.549926*
20,1,.1,.3175,.549926,.40817,.486438,0.0*
1,1,.1,.40817,.486438*
20,1,.1,.40817,.486438,.486438,.40817,0.0*
1,1,.1,.486438,.40817*
20,1,.1,.486438,.40817,.549926,.3175,0.0*
1,1,.1,.549926,.3175*
20,1,.1,.549926,.3175,.596705,.217183,0.0*
1,1,.1,.596705,.217183*
20,1,.1,.596705,.217183,.625353,.110267,0.0*
1,1,.1,.625353,.110267*
20,1,.1,.625353,.110267,.635,0.0,0.0*
1,1,.1,.635,0.0*
1,1,.1,.3175,0.0*
20,1,.1,.3175,0.0,-.3175,0.0,0.0*
1,1,.1,-.3175,0.0*
1,1,.1,0.0,.3175*
20,1,.1,0.0,.3175,0.0,-.3175,0.0*
1,1,.1,0.0,-.3175*
%
%ADD10MACRO10*%
%ADD11C,.1*%
G75*
%LPD*%
G75*
G36*
G01X-5627880Y5119030D02*
Y5061440D01*
X-5564380D01*
Y56630D01*
X-5627880D01*
Y-960D01*
X-5246880D01*
Y56630D01*
X-5310380D01*
Y5061440D01*
X-5246880D01*
Y5119030D01*
X-5627880D01*
G37*
G36*
G01X-6135880Y-950D02*
Y56640D01*
X-4611880D01*
Y-950D01*
X-6135880D01*
G37*
G36*
G01Y5061440D02*
Y5119030D01*
X-4611880D01*
Y5061440D01*
X-6135880D01*
G37*
G54D10*
X-618270Y-3038500D03*
X1169000Y1931000D03*
X717000Y1816000D03*
X1410000Y1694000D03*
X1664000Y1732000D03*
X1256000Y1632000D03*
X1658000Y2320000D03*
X1774000Y2646000D03*
X1267420Y2753580D03*
X1243000Y3072000D03*
X1877000Y2996000D03*
X2253000Y867000D03*
X2344000Y2489000D03*
X2287000Y2952000D03*
X3122610Y2606610D03*
X2813000Y3114000D03*
X3510000Y1515000D03*
G54D11*
G01X-6336380Y-348340D02*
Y-268340D01*
X-6316380D01*
X-6308380Y-272340D01*
X-6302380Y-277670D01*
X-6297380Y-285670D01*
X-6293380Y-295010D01*
X-6292380Y-308340D01*
X-6293380Y-321670D01*
X-6297380Y-331010D01*
X-6302380Y-339010D01*
X-6308380Y-344340D01*
X-6316380Y-348340D01*
X-6336380D01*
G01X-6219140D02*
X-6259140D01*
Y-268340D01*
X-6219140D01*
G01X-6235140Y-307010D02*
X-6259140D01*
G01X-6184900Y-337680D02*
X-6176900Y-344340D01*
X-6167900Y-348340D01*
X-6159900D01*
X-6151900Y-344340D01*
X-6145900Y-337680D01*
X-6142900Y-328340D01*
X-6144900Y-319010D01*
X-6149900Y-311010D01*
X-6158900Y-305670D01*
X-6170900Y-303010D01*
X-6177900Y-297670D01*
X-6180900Y-288340D01*
X-6178900Y-279010D01*
X-6173900Y-272340D01*
X-6166900Y-268340D01*
X-6159900D01*
X-6152900Y-271010D01*
X-6146900Y-277670D01*
G01X-6100660Y-268340D02*
X-6076660D01*
G01X-6088660D02*
Y-348340D01*
G01X-6100660D02*
X-6076660D01*
G01X-6007420Y-308340D02*
X-5987420D01*
Y-332340D01*
X-5993420Y-340340D01*
X-6000420Y-345670D01*
X-6010420Y-348340D01*
X-6020420Y-345670D01*
X-6027420Y-340340D01*
X-6033420Y-332340D01*
X-6037420Y-323010D01*
X-6039420Y-312340D01*
Y-303010D01*
X-6037420Y-295010D01*
X-6033420Y-285670D01*
X-6027420Y-277670D01*
X-6021420Y-272340D01*
X-6013420Y-268340D01*
X-6006420D01*
X-5998420Y-271010D01*
X-5992420Y-276340D01*
G01X-5961180Y-348340D02*
Y-268340D01*
X-5915180Y-348340D01*
Y-268340D01*
G01X-5765700Y-275010D02*
X-5771700Y-271010D01*
X-5778700Y-268340D01*
X-5786700D01*
X-5795700Y-272340D01*
X-5802700Y-279010D01*
X-5807700Y-287010D01*
X-5811700Y-300340D01*
X-5812700Y-312340D01*
X-5810700Y-324340D01*
X-5807700Y-332340D01*
X-5801700Y-340340D01*
X-5794700Y-345670D01*
X-5787700Y-348340D01*
X-5780700D01*
X-5773700Y-345670D01*
X-5767700Y-341670D01*
X-5762700Y-336340D01*
G01X-5732460Y-348340D02*
Y-268340D01*
X-5707460D01*
X-5699460Y-272340D01*
X-5694460Y-277670D01*
X-5692460Y-288340D01*
X-5694460Y-299010D01*
X-5700460Y-305670D01*
X-5707460Y-309670D01*
X-5732460D01*
G01X-5707460D02*
X-5692460Y-348340D01*
G01X-5637220D02*
X-5645220Y-347010D01*
X-5652220Y-341670D01*
X-5658220Y-333670D01*
X-5662220Y-324340D01*
X-5664220Y-313670D01*
Y-303010D01*
X-5662220Y-292340D01*
X-5658220Y-283010D01*
X-5652220Y-275010D01*
X-5645220Y-269670D01*
X-5637220Y-268340D01*
X-5629220Y-269670D01*
X-5622220Y-275010D01*
X-5616220Y-283010D01*
X-5612220Y-292340D01*
X-5610220Y-303010D01*
Y-313670D01*
X-5612220Y-324340D01*
X-5616220Y-333670D01*
X-5622220Y-341670D01*
X-5629220Y-347010D01*
X-5637220Y-348340D01*
G01X-5582980Y-337680D02*
X-5574980Y-344340D01*
X-5565980Y-348340D01*
X-5557980D01*
X-5549980Y-344340D01*
X-5543980Y-337680D01*
X-5540980Y-328340D01*
X-5542980Y-319010D01*
X-5547980Y-311010D01*
X-5556980Y-305670D01*
X-5568980Y-303010D01*
X-5575980Y-297670D01*
X-5578980Y-288340D01*
X-5576980Y-279010D01*
X-5571980Y-272340D01*
X-5564980Y-268340D01*
X-5557980D01*
X-5550980Y-271010D01*
X-5544980Y-277670D01*
G01X-5507740Y-337680D02*
X-5499740Y-344340D01*
X-5490740Y-348340D01*
X-5482740D01*
X-5474740Y-344340D01*
X-5468740Y-337680D01*
X-5465740Y-328340D01*
X-5467740Y-319010D01*
X-5472740Y-311010D01*
X-5481740Y-305670D01*
X-5493740Y-303010D01*
X-5500740Y-297670D01*
X-5503740Y-288340D01*
X-5501740Y-279010D01*
X-5496740Y-272340D01*
X-5489740Y-268340D01*
X-5482740D01*
X-5475740Y-271010D01*
X-5469740Y-277670D01*
G01X-5357260Y-337680D02*
X-5349260Y-344340D01*
X-5340260Y-348340D01*
X-5332260D01*
X-5324260Y-344340D01*
X-5318260Y-337680D01*
X-5315260Y-328340D01*
X-5317260Y-319010D01*
X-5322260Y-311010D01*
X-5331260Y-305670D01*
X-5343260Y-303010D01*
X-5350260Y-297670D01*
X-5353260Y-288340D01*
X-5351260Y-279010D01*
X-5346260Y-272340D01*
X-5339260Y-268340D01*
X-5332260D01*
X-5325260Y-271010D01*
X-5319260Y-277670D01*
G01X-5241020Y-348340D02*
X-5281020D01*
Y-268340D01*
X-5241020D01*
G01X-5257020Y-307010D02*
X-5281020D01*
G01X-5163780Y-275010D02*
X-5169780Y-271010D01*
X-5176780Y-268340D01*
X-5184780D01*
X-5193780Y-272340D01*
X-5200780Y-279010D01*
X-5205780Y-287010D01*
X-5209780Y-300340D01*
X-5210780Y-312340D01*
X-5208780Y-324340D01*
X-5205780Y-332340D01*
X-5199780Y-340340D01*
X-5192780Y-345670D01*
X-5185780Y-348340D01*
X-5178780D01*
X-5171780Y-345670D01*
X-5165780Y-341670D01*
X-5160780Y-336340D01*
G01X-5110540Y-268340D02*
Y-348340D01*
G01X-5133540Y-268340D02*
X-5087540D01*
G01X-5047300D02*
X-5023300D01*
G01X-5035300D02*
Y-348340D01*
G01X-5047300D02*
X-5023300D01*
G01X-4960060D02*
X-4968060Y-347010D01*
X-4975060Y-341670D01*
X-4981060Y-333670D01*
X-4985060Y-324340D01*
X-4987060Y-313670D01*
Y-303010D01*
X-4985060Y-292340D01*
X-4981060Y-283010D01*
X-4975060Y-275010D01*
X-4968060Y-269670D01*
X-4960060Y-268340D01*
X-4952060Y-269670D01*
X-4945060Y-275010D01*
X-4939060Y-283010D01*
X-4935060Y-292340D01*
X-4933060Y-303010D01*
Y-313670D01*
X-4935060Y-324340D01*
X-4939060Y-333670D01*
X-4945060Y-341670D01*
X-4952060Y-347010D01*
X-4960060Y-348340D01*
G01X-4907820D02*
Y-268340D01*
X-4861820Y-348340D01*
Y-268340D01*
G01X-4712340Y-275010D02*
X-4718340Y-271010D01*
X-4725340Y-268340D01*
X-4733340D01*
X-4742340Y-272340D01*
X-4749340Y-279010D01*
X-4754340Y-287010D01*
X-4758340Y-300340D01*
X-4759340Y-312340D01*
X-4757340Y-324340D01*
X-4754340Y-332340D01*
X-4748340Y-340340D01*
X-4741340Y-345670D01*
X-4734340Y-348340D01*
X-4727340D01*
X-4720340Y-345670D01*
X-4714340Y-341670D01*
X-4709340Y-336340D01*
G01X-4680100Y-348340D02*
Y-268340D01*
G01X-4638100D02*
Y-348340D01*
G01Y-308340D02*
X-4680100D01*
G01X-4608860Y-348340D02*
X-4583860Y-268340D01*
X-4558860Y-348340D01*
G01X-4567860Y-320340D02*
X-4599860D01*
G01X-4528620Y-348340D02*
Y-268340D01*
X-4503620D01*
X-4495620Y-272340D01*
X-4490620Y-277670D01*
X-4488620Y-288340D01*
X-4490620Y-299010D01*
X-4496620Y-305670D01*
X-4503620Y-309670D01*
X-4528620D01*
G01X-4503620D02*
X-4488620Y-348340D01*
G01X-4433380Y-268340D02*
Y-348340D01*
G01X-4456380Y-268340D02*
X-4410380D01*
G01X-6382000Y-375010D02*
X-6322000D01*
G01X-6306760D02*
X-6246760D01*
G01X-6231520D02*
X-6171520D01*
G01X-6156280D02*
X-6096280D01*
G01X-6081040D02*
X-6021040D01*
G01X-6005800D02*
X-5945800D01*
G01X-5930560D02*
X-5870560D01*
G01X-5855320D02*
X-5795320D01*
G01X-5780080D02*
X-5720080D01*
G01X-5704840D02*
X-5644840D01*
G01X-5629600D02*
X-5569600D01*
G01X-5554360D02*
X-5494360D01*
G01X-5479120D02*
X-5419120D01*
G01X-5403880D02*
X-5343880D01*
G01X-5328640D02*
X-5268640D01*
G01X-5253400D02*
X-5193400D01*
G01X-5178160D02*
X-5118160D01*
G01X-5102920D02*
X-5042920D01*
G01X-5027680D02*
X-4967680D01*
G01X-4952440D02*
X-4892440D01*
G01X-4877200D02*
X-4817200D01*
G01X-4801960D02*
X-4741960D01*
G01X-4726720D02*
X-4666720D01*
G01X-4651480D02*
X-4591480D01*
G01X-4576240D02*
X-4516240D01*
G01X-4501000D02*
X-4441000D01*
G01X-4425760D02*
X-4365760D01*
G01X-6163900Y-412340D02*
Y-492340D01*
G01X-6186900Y-412340D02*
X-6140900D01*
G01X-6088660Y-492340D02*
X-6096660Y-491010D01*
X-6103660Y-485670D01*
X-6109660Y-477670D01*
X-6113660Y-468340D01*
X-6115660Y-457670D01*
Y-447010D01*
X-6113660Y-436340D01*
X-6109660Y-427010D01*
X-6103660Y-419010D01*
X-6096660Y-413670D01*
X-6088660Y-412340D01*
X-6080660Y-413670D01*
X-6073660Y-419010D01*
X-6067660Y-427010D01*
X-6063660Y-436340D01*
X-6061660Y-447010D01*
Y-457670D01*
X-6063660Y-468340D01*
X-6067660Y-477670D01*
X-6073660Y-485670D01*
X-6080660Y-491010D01*
X-6088660Y-492340D01*
G01X-6013420Y-412340D02*
Y-492340D01*
G01X-6036420Y-412340D02*
X-5990420D01*
G01X-5963180Y-492340D02*
X-5938180Y-412340D01*
X-5913180Y-492340D01*
G01X-5922180Y-464340D02*
X-5954180D01*
G01X-5882940Y-412340D02*
Y-492340D01*
X-5842940D01*
G01X-5712460Y-412340D02*
Y-492340D01*
G01X-5735460Y-412340D02*
X-5689460D01*
G01X-5658220Y-492340D02*
Y-412340D01*
G01X-5616220D02*
Y-492340D01*
G01Y-452340D02*
X-5658220D01*
G01X-5573980Y-412340D02*
X-5549980D01*
G01X-5561980D02*
Y-492340D01*
G01X-5573980D02*
X-5549980D01*
G01X-5464740Y-419010D02*
X-5470740Y-415010D01*
X-5477740Y-412340D01*
X-5485740D01*
X-5494740Y-416340D01*
X-5501740Y-423010D01*
X-5506740Y-431010D01*
X-5510740Y-444340D01*
X-5511740Y-456340D01*
X-5509740Y-468340D01*
X-5506740Y-476340D01*
X-5500740Y-484340D01*
X-5493740Y-489670D01*
X-5486740Y-492340D01*
X-5479740D01*
X-5472740Y-489670D01*
X-5466740Y-485670D01*
X-5461740Y-480340D01*
G01X-5433500Y-492340D02*
Y-412340D01*
G01X-5395500D02*
X-5433500Y-461680D01*
G01X-5389500Y-492340D02*
X-5416500Y-439010D01*
G01X-5359260Y-492340D02*
Y-412340D01*
X-5313260Y-492340D01*
Y-412340D01*
G01X-5241020Y-492340D02*
X-5281020D01*
Y-412340D01*
X-5241020D01*
G01X-5257020Y-451010D02*
X-5281020D01*
G01X-5206780Y-481680D02*
X-5198780Y-488340D01*
X-5189780Y-492340D01*
X-5181780D01*
X-5173780Y-488340D01*
X-5167780Y-481680D01*
X-5164780Y-472340D01*
X-5166780Y-463010D01*
X-5171780Y-455010D01*
X-5180780Y-449670D01*
X-5192780Y-447010D01*
X-5199780Y-441670D01*
X-5202780Y-432340D01*
X-5200780Y-423010D01*
X-5195780Y-416340D01*
X-5188780Y-412340D01*
X-5181780D01*
X-5174780Y-415010D01*
X-5168780Y-421670D01*
G01X-5131540Y-481680D02*
X-5123540Y-488340D01*
X-5114540Y-492340D01*
X-5106540D01*
X-5098540Y-488340D01*
X-5092540Y-481680D01*
X-5089540Y-472340D01*
X-5091540Y-463010D01*
X-5096540Y-455010D01*
X-5105540Y-449670D01*
X-5117540Y-447010D01*
X-5124540Y-441670D01*
X-5127540Y-432340D01*
X-5125540Y-423010D01*
X-5120540Y-416340D01*
X-5113540Y-412340D01*
X-5106540D01*
X-5099540Y-415010D01*
X-5093540Y-421670D01*
G01X-4960060Y-492340D02*
Y-412340D01*
X-4972060Y-428340D01*
G01Y-492340D02*
X-4948060D01*
G01X-4884820Y-495010D02*
X-4886820Y-493670D01*
Y-491010D01*
X-4884820Y-489670D01*
X-4882820Y-491010D01*
Y-493670D01*
X-4884820Y-495010D01*
G01X-4828580Y-459010D02*
X-4821580Y-449670D01*
X-4815580Y-444340D01*
X-4807580Y-441670D01*
X-4800580Y-444340D01*
X-4795580Y-449670D01*
X-4791580Y-457670D01*
X-4790580Y-467010D01*
X-4791580Y-475010D01*
X-4795580Y-483010D01*
X-4801580Y-489670D01*
X-4808580Y-492340D01*
X-4816580Y-489670D01*
X-4823580Y-481680D01*
X-4827580Y-469670D01*
X-4828580Y-456340D01*
X-4826580Y-439010D01*
X-4823580Y-429670D01*
X-4818580Y-420340D01*
X-4811580Y-413670D01*
X-4804580Y-412340D01*
X-4797580Y-415010D01*
X-4792580Y-421670D01*
G01X-4685100Y-492340D02*
Y-412340D01*
X-4659100Y-479010D01*
X-4633100Y-412340D01*
Y-492340D01*
G01X-4609860D02*
Y-412340D01*
X-4583860Y-479010D01*
X-4557860Y-412340D01*
Y-492340D01*
G01X-5437380Y5229030D02*
X-5517380D01*
X-5501380Y5217030D01*
G01X-5437380D02*
Y5241030D01*
G01X-5464050Y5291270D02*
Y5317270D01*
G01X-5504050Y5360510D02*
X-5512050Y5366510D01*
X-5516050Y5373510D01*
X-5517380Y5381510D01*
X-5514710Y5391510D01*
X-5508050Y5398510D01*
X-5500050Y5400510D01*
X-5492040Y5399510D01*
X-5485380Y5395510D01*
X-5472050Y5375510D01*
X-5462710Y5366510D01*
X-5449380Y5360510D01*
X-5437380Y5358510D01*
Y5400510D01*
G01X-4526640Y29980D02*
Y-50020D01*
X-4486640D01*
G01X-4450400Y16650D02*
X-4444400Y24650D01*
X-4437400Y28650D01*
X-4429400Y29980D01*
X-4419400Y27310D01*
X-4412400Y20650D01*
X-4410400Y12650D01*
X-4411400Y4640D01*
X-4415400Y-2020D01*
X-4435400Y-15350D01*
X-4444400Y-24690D01*
X-4450400Y-38020D01*
X-4452400Y-50020D01*
X-4410400D01*
G01X-4272920Y-7350D02*
X-4268920Y-3350D01*
X-4265920Y3310D01*
X-4263920Y12650D01*
X-4265920Y20650D01*
X-4269920Y25980D01*
X-4276920Y29980D01*
X-4303920D01*
Y-50020D01*
X-4270920D01*
X-4263920Y-44690D01*
X-4259920Y-36690D01*
X-4257920Y-27350D01*
X-4259920Y-18020D01*
X-4265920Y-10020D01*
X-4272920Y-7350D01*
X-4303920D01*
G01X-4205680Y-50020D02*
X-4213680Y-48690D01*
X-4220680Y-43350D01*
X-4226680Y-35350D01*
X-4230680Y-26020D01*
X-4232680Y-15350D01*
Y-4690D01*
X-4230680Y5980D01*
X-4226680Y15310D01*
X-4220680Y23310D01*
X-4213680Y28650D01*
X-4205680Y29980D01*
X-4197680Y28650D01*
X-4190680Y23310D01*
X-4184680Y15310D01*
X-4180680Y5980D01*
X-4178680Y-4690D01*
Y-15350D01*
X-4180680Y-26020D01*
X-4184680Y-35350D01*
X-4190680Y-43350D01*
X-4197680Y-48690D01*
X-4205680Y-50020D01*
G01X-4130440Y29980D02*
Y-50020D01*
G01X-4153440Y29980D02*
X-4107440D01*
G01X-4055200D02*
Y-50020D01*
G01X-4078200Y29980D02*
X-4032200D01*
G01X-3979960Y-50020D02*
X-3987960Y-48690D01*
X-3994960Y-43350D01*
X-4000960Y-35350D01*
X-4004960Y-26020D01*
X-4006960Y-15350D01*
Y-4690D01*
X-4004960Y5980D01*
X-4000960Y15310D01*
X-3994960Y23310D01*
X-3987960Y28650D01*
X-3979960Y29980D01*
X-3971960Y28650D01*
X-3964960Y23310D01*
X-3958960Y15310D01*
X-3954960Y5980D01*
X-3952960Y-4690D01*
Y-15350D01*
X-3954960Y-26020D01*
X-3958960Y-35350D01*
X-3964960Y-43350D01*
X-3971960Y-48690D01*
X-3979960Y-50020D01*
G01X-3930720D02*
Y29980D01*
X-3904720Y-36690D01*
X-3878720Y29980D01*
Y-50020D01*
G01X-3732240Y23310D02*
X-3738240Y27310D01*
X-3745240Y29980D01*
X-3753240D01*
X-3762240Y25980D01*
X-3769240Y19310D01*
X-3774240Y11310D01*
X-3778240Y-2020D01*
X-3779240Y-14020D01*
X-3777240Y-26020D01*
X-3774240Y-34020D01*
X-3768240Y-42020D01*
X-3761240Y-47350D01*
X-3754240Y-50020D01*
X-3747240D01*
X-3740240Y-47350D01*
X-3734240Y-43350D01*
X-3729240Y-38020D01*
G01X-3679000Y-50020D02*
X-3687000Y-48690D01*
X-3694000Y-43350D01*
X-3700000Y-35350D01*
X-3704000Y-26020D01*
X-3706000Y-15350D01*
Y-4690D01*
X-3704000Y5980D01*
X-3700000Y15310D01*
X-3694000Y23310D01*
X-3687000Y28650D01*
X-3679000Y29980D01*
X-3671000Y28650D01*
X-3664000Y23310D01*
X-3658000Y15310D01*
X-3654000Y5980D01*
X-3652000Y-4690D01*
Y-15350D01*
X-3654000Y-26020D01*
X-3658000Y-35350D01*
X-3664000Y-43350D01*
X-3671000Y-48690D01*
X-3679000Y-50020D01*
G01X-3626760D02*
Y29980D01*
X-3580760Y-50020D01*
Y29980D01*
G01X-3550520Y-50020D02*
Y29980D01*
X-3530520D01*
X-3522520Y25980D01*
X-3516520Y20650D01*
X-3511520Y12650D01*
X-3507520Y3310D01*
X-3506520Y-10020D01*
X-3507520Y-23350D01*
X-3511520Y-32690D01*
X-3516520Y-40690D01*
X-3522520Y-46020D01*
X-3530520Y-50020D01*
X-3550520D01*
G01X-3475280Y29980D02*
Y-27350D01*
X-3471280Y-39360D01*
X-3463280Y-47350D01*
X-3453280Y-50020D01*
X-3443280Y-47350D01*
X-3435280Y-39360D01*
X-3431280Y-27350D01*
Y29980D01*
G01X-3356040Y23310D02*
X-3362040Y27310D01*
X-3369040Y29980D01*
X-3377040D01*
X-3386040Y25980D01*
X-3393040Y19310D01*
X-3398040Y11310D01*
X-3402040Y-2020D01*
X-3403040Y-14020D01*
X-3401040Y-26020D01*
X-3398040Y-34020D01*
X-3392040Y-42020D01*
X-3385040Y-47350D01*
X-3378040Y-50020D01*
X-3371040D01*
X-3364040Y-47350D01*
X-3358040Y-43350D01*
X-3353040Y-38020D01*
G01X-3302800Y29980D02*
Y-50020D01*
G01X-3325800Y29980D02*
X-3279800D01*
G01X-3227560Y-50020D02*
X-3235560Y-48690D01*
X-3242560Y-43350D01*
X-3248560Y-35350D01*
X-3252560Y-26020D01*
X-3254560Y-15350D01*
Y-4690D01*
X-3252560Y5980D01*
X-3248560Y15310D01*
X-3242560Y23310D01*
X-3235560Y28650D01*
X-3227560Y29980D01*
X-3219560Y28650D01*
X-3212560Y23310D01*
X-3206560Y15310D01*
X-3202560Y5980D01*
X-3200560Y-4690D01*
Y-15350D01*
X-3202560Y-26020D01*
X-3206560Y-35350D01*
X-3212560Y-43350D01*
X-3219560Y-48690D01*
X-3227560Y-50020D01*
G01X-3172320D02*
Y29980D01*
X-3147320D01*
X-3139320Y25980D01*
X-3134320Y20650D01*
X-3132320Y9980D01*
X-3134320Y-690D01*
X-3140320Y-7350D01*
X-3147320Y-11350D01*
X-3172320D01*
G01X-3147320D02*
X-3132320Y-50020D01*
G01X-4378160Y-159350D02*
X-4334160Y-100680D01*
G01X-4356160Y-90010D02*
Y-170010D01*
G01X-4334160Y-159350D02*
X-4378160Y-100680D01*
G01X-4386160Y-130010D02*
X-4326160D01*
G01X-4151440Y-146020D02*
X-4143440Y-152680D01*
X-4134440Y-156680D01*
X-4126440D01*
X-4118440Y-152680D01*
X-4112440Y-146020D01*
X-4109440Y-136680D01*
X-4111440Y-127350D01*
X-4116440Y-119350D01*
X-4125440Y-114010D01*
X-4137440Y-111350D01*
X-4144440Y-106010D01*
X-4147440Y-96680D01*
X-4145440Y-87350D01*
X-4140440Y-80680D01*
X-4133440Y-76680D01*
X-4126440D01*
X-4119440Y-79350D01*
X-4113440Y-86010D01*
G01X-4077200Y-76680D02*
Y-134010D01*
X-4073200Y-146020D01*
X-4065200Y-154010D01*
X-4055200Y-156680D01*
X-4045200Y-154010D01*
X-4037200Y-146020D01*
X-4033200Y-134010D01*
Y-76680D01*
G01X-3999960Y-156680D02*
Y-76680D01*
X-3974960D01*
X-3966960Y-80680D01*
X-3961960Y-86010D01*
X-3959960Y-96680D01*
X-3961960Y-107350D01*
X-3967960Y-114010D01*
X-3974960Y-118010D01*
X-3999960D01*
G01X-3974960D02*
X-3959960Y-156680D01*
G01X-3923720D02*
Y-76680D01*
X-3885720D01*
G01X-3899720Y-115350D02*
X-3923720D01*
G01X-3854480Y-156680D02*
X-3829480Y-76680D01*
X-3804480Y-156680D01*
G01X-3813480Y-128680D02*
X-3845480D01*
G01X-3732240Y-83350D02*
X-3738240Y-79350D01*
X-3745240Y-76680D01*
X-3753240D01*
X-3762240Y-80680D01*
X-3769240Y-87350D01*
X-3774240Y-95350D01*
X-3778240Y-108680D01*
X-3779240Y-120680D01*
X-3777240Y-132680D01*
X-3774240Y-140680D01*
X-3768240Y-148680D01*
X-3761240Y-154010D01*
X-3754240Y-156680D01*
X-3747240D01*
X-3740240Y-154010D01*
X-3734240Y-150010D01*
X-3729240Y-144680D01*
G01X-3659000Y-156680D02*
X-3699000D01*
Y-76680D01*
X-3659000D01*
G01X-3675000Y-115350D02*
X-3699000D01*
G01X-4378160Y2556370D02*
X-4334160Y2615040D01*
G01X-4356160Y2625710D02*
Y2545710D01*
G01X-4334160Y2556370D02*
X-4378160Y2615040D01*
G01X-4386160Y2585710D02*
X-4326160D01*
G01X-4152440Y2559040D02*
Y2639040D01*
X-4132440D01*
X-4124440Y2635040D01*
X-4118440Y2629710D01*
X-4113440Y2621710D01*
X-4109440Y2612370D01*
X-4108440Y2599040D01*
X-4109440Y2585710D01*
X-4113440Y2576370D01*
X-4118440Y2568370D01*
X-4124440Y2563040D01*
X-4132440Y2559040D01*
X-4152440D01*
G01X-4067200Y2639040D02*
X-4043200D01*
G01X-4055200D02*
Y2559040D01*
G01X-4067200D02*
X-4043200D01*
G01X-3959960D02*
X-3999960D01*
Y2639040D01*
X-3959960D01*
G01X-3975960Y2600370D02*
X-3999960D01*
G01X-3924720Y2639040D02*
Y2559040D01*
X-3884720D01*
G01X-3809480D02*
X-3849480D01*
Y2639040D01*
X-3809480D01*
G01X-3825480Y2600370D02*
X-3849480D01*
G01X-3732240Y2632370D02*
X-3738240Y2636370D01*
X-3745240Y2639040D01*
X-3753240D01*
X-3762240Y2635040D01*
X-3769240Y2628370D01*
X-3774240Y2620370D01*
X-3778240Y2607040D01*
X-3779240Y2595040D01*
X-3777240Y2583040D01*
X-3774240Y2575040D01*
X-3768240Y2567040D01*
X-3761240Y2561710D01*
X-3754240Y2559040D01*
X-3747240D01*
X-3740240Y2561710D01*
X-3734240Y2565710D01*
X-3729240Y2571040D01*
G01X-3679000Y2639040D02*
Y2559040D01*
G01X-3702000Y2639040D02*
X-3656000D01*
G01X-3623760Y2559040D02*
Y2639040D01*
X-3598760D01*
X-3590760Y2635040D01*
X-3585760Y2629710D01*
X-3583760Y2619040D01*
X-3585760Y2608370D01*
X-3591760Y2601710D01*
X-3598760Y2597710D01*
X-3623760D01*
G01X-3598760D02*
X-3583760Y2559040D01*
G01X-3540520Y2639040D02*
X-3516520D01*
G01X-3528520D02*
Y2559040D01*
G01X-3540520D02*
X-3516520D01*
G01X-3431280Y2632370D02*
X-3437280Y2636370D01*
X-3444280Y2639040D01*
X-3452280D01*
X-3461280Y2635040D01*
X-3468280Y2628370D01*
X-3473280Y2620370D01*
X-3477280Y2607040D01*
X-3478280Y2595040D01*
X-3476280Y2583040D01*
X-3473280Y2575040D01*
X-3467280Y2567040D01*
X-3460280Y2561710D01*
X-3453280Y2559040D01*
X-3446280D01*
X-3439280Y2561710D01*
X-3433280Y2565710D01*
X-3428280Y2571040D01*
G01X-4378160Y5143020D02*
X-4334160Y5201690D01*
G01X-4356160Y5212360D02*
Y5132360D01*
G01X-4334160Y5143020D02*
X-4378160Y5201690D01*
G01X-4386160Y5172360D02*
X-4326160D01*
G01X-4151440Y5156350D02*
X-4143440Y5149690D01*
X-4134440Y5145690D01*
X-4126440D01*
X-4118440Y5149690D01*
X-4112440Y5156350D01*
X-4109440Y5165690D01*
X-4111440Y5175020D01*
X-4116440Y5183020D01*
X-4125440Y5188360D01*
X-4137440Y5191020D01*
X-4144440Y5196360D01*
X-4147440Y5205690D01*
X-4145440Y5215020D01*
X-4140440Y5221690D01*
X-4133440Y5225690D01*
X-4126440D01*
X-4119440Y5223020D01*
X-4113440Y5216360D01*
G01X-4077200Y5225690D02*
Y5168360D01*
X-4073200Y5156350D01*
X-4065200Y5148360D01*
X-4055200Y5145690D01*
X-4045200Y5148360D01*
X-4037200Y5156350D01*
X-4033200Y5168360D01*
Y5225690D01*
G01X-3999960Y5145690D02*
Y5225690D01*
X-3974960D01*
X-3966960Y5221690D01*
X-3961960Y5216360D01*
X-3959960Y5205690D01*
X-3961960Y5195020D01*
X-3967960Y5188360D01*
X-3974960Y5184360D01*
X-3999960D01*
G01X-3974960D02*
X-3959960Y5145690D01*
G01X-3923720D02*
Y5225690D01*
X-3885720D01*
G01X-3899720Y5187020D02*
X-3923720D01*
G01X-3854480Y5145690D02*
X-3829480Y5225690D01*
X-3804480Y5145690D01*
G01X-3813480Y5173690D02*
X-3845480D01*
G01X-3732240Y5219020D02*
X-3738240Y5223020D01*
X-3745240Y5225690D01*
X-3753240D01*
X-3762240Y5221690D01*
X-3769240Y5215020D01*
X-3774240Y5207020D01*
X-3778240Y5193690D01*
X-3779240Y5181690D01*
X-3777240Y5169690D01*
X-3774240Y5161690D01*
X-3768240Y5153690D01*
X-3761240Y5148360D01*
X-3754240Y5145690D01*
X-3747240D01*
X-3740240Y5148360D01*
X-3734240Y5152360D01*
X-3729240Y5157690D01*
G01X-3659000Y5145690D02*
X-3699000D01*
Y5225690D01*
X-3659000D01*
G01X-3675000Y5187020D02*
X-3699000D01*
G01X-4526640Y5092370D02*
Y5012370D01*
X-4486640D01*
G01X-4431400D02*
Y5092370D01*
X-4443400Y5076370D01*
G01Y5012370D02*
X-4419400D01*
G01X-4280920Y5092370D02*
Y5012370D01*
G01X-4303920Y5092370D02*
X-4257920D01*
G01X-4205680Y5012370D02*
X-4213680Y5013700D01*
X-4220680Y5019040D01*
X-4226680Y5027040D01*
X-4230680Y5036370D01*
X-4232680Y5047040D01*
Y5057700D01*
X-4230680Y5068370D01*
X-4226680Y5077700D01*
X-4220680Y5085700D01*
X-4213680Y5091040D01*
X-4205680Y5092370D01*
X-4197680Y5091040D01*
X-4190680Y5085700D01*
X-4184680Y5077700D01*
X-4180680Y5068370D01*
X-4178680Y5057700D01*
Y5047040D01*
X-4180680Y5036370D01*
X-4184680Y5027040D01*
X-4190680Y5019040D01*
X-4197680Y5013700D01*
X-4205680Y5012370D01*
G01X-4150440D02*
Y5092370D01*
X-4126440D01*
X-4118440Y5088370D01*
X-4112440Y5079040D01*
X-4110440Y5068370D01*
X-4112440Y5057700D01*
X-4117440Y5049700D01*
X-4126440Y5045700D01*
X-4150440D01*
G01X-3957960Y5085700D02*
X-3963960Y5089700D01*
X-3970960Y5092370D01*
X-3978960D01*
X-3987960Y5088370D01*
X-3994960Y5081700D01*
X-3999960Y5073700D01*
X-4003960Y5060370D01*
X-4004960Y5048370D01*
X-4002960Y5036370D01*
X-3999960Y5028370D01*
X-3993960Y5020370D01*
X-3986960Y5015040D01*
X-3979960Y5012370D01*
X-3972960D01*
X-3965960Y5015040D01*
X-3959960Y5019040D01*
X-3954960Y5024370D01*
G01X-3904720Y5012370D02*
X-3912720Y5013700D01*
X-3919720Y5019040D01*
X-3925720Y5027040D01*
X-3929720Y5036370D01*
X-3931720Y5047040D01*
Y5057700D01*
X-3929720Y5068370D01*
X-3925720Y5077700D01*
X-3919720Y5085700D01*
X-3912720Y5091040D01*
X-3904720Y5092370D01*
X-3896720Y5091040D01*
X-3889720Y5085700D01*
X-3883720Y5077700D01*
X-3879720Y5068370D01*
X-3877720Y5057700D01*
Y5047040D01*
X-3879720Y5036370D01*
X-3883720Y5027040D01*
X-3889720Y5019040D01*
X-3896720Y5013700D01*
X-3904720Y5012370D01*
G01X-3852480D02*
Y5092370D01*
X-3806480Y5012370D01*
Y5092370D01*
G01X-3776240Y5012370D02*
Y5092370D01*
X-3756240D01*
X-3748240Y5088370D01*
X-3742240Y5083040D01*
X-3737240Y5075040D01*
X-3733240Y5065700D01*
X-3732240Y5052370D01*
X-3733240Y5039040D01*
X-3737240Y5029700D01*
X-3742240Y5021700D01*
X-3748240Y5016370D01*
X-3756240Y5012370D01*
X-3776240D01*
G01X-3701000Y5092370D02*
Y5035040D01*
X-3697000Y5023030D01*
X-3689000Y5015040D01*
X-3679000Y5012370D01*
X-3669000Y5015040D01*
X-3661000Y5023030D01*
X-3657000Y5035040D01*
Y5092370D01*
G01X-3581760Y5085700D02*
X-3587760Y5089700D01*
X-3594760Y5092370D01*
X-3602760D01*
X-3611760Y5088370D01*
X-3618760Y5081700D01*
X-3623760Y5073700D01*
X-3627760Y5060370D01*
X-3628760Y5048370D01*
X-3626760Y5036370D01*
X-3623760Y5028370D01*
X-3617760Y5020370D01*
X-3610760Y5015040D01*
X-3603760Y5012370D01*
X-3596760D01*
X-3589760Y5015040D01*
X-3583760Y5019040D01*
X-3578760Y5024370D01*
G01X-3528520Y5092370D02*
Y5012370D01*
G01X-3551520Y5092370D02*
X-3505520D01*
G01X-3453280Y5012370D02*
X-3461280Y5013700D01*
X-3468280Y5019040D01*
X-3474280Y5027040D01*
X-3478280Y5036370D01*
X-3480280Y5047040D01*
Y5057700D01*
X-3478280Y5068370D01*
X-3474280Y5077700D01*
X-3468280Y5085700D01*
X-3461280Y5091040D01*
X-3453280Y5092370D01*
X-3445280Y5091040D01*
X-3438280Y5085700D01*
X-3432280Y5077700D01*
X-3428280Y5068370D01*
X-3426280Y5057700D01*
Y5047040D01*
X-3428280Y5036370D01*
X-3432280Y5027040D01*
X-3438280Y5019040D01*
X-3445280Y5013700D01*
X-3453280Y5012370D01*
G01X-3398040D02*
Y5092370D01*
X-3373040D01*
X-3365040Y5088370D01*
X-3360040Y5083040D01*
X-3358040Y5072370D01*
X-3360040Y5061700D01*
X-3366040Y5055040D01*
X-3373040Y5051040D01*
X-3398040D01*
G01X-3373040D02*
X-3358040Y5012370D01*
G01X-6135880Y56640D02*
Y5061440D01*
X-4611880D01*
Y56640D01*
X-6135880D01*
G01X-1760000Y-3356000D02*
Y-801000D01*
X10838400D01*
Y-3356000D01*
X-1760000D01*
G01X-1480480Y-2562250D02*
Y-2244750D01*
X-1330860D01*
G01X-1385990Y-2398200D02*
X-1480480D01*
G01X-1137950Y-2244750D02*
X-1043470D01*
G01X-1090710D02*
Y-2562250D01*
G01X-1137950D02*
X-1043470D01*
G01X-752130Y-2403500D02*
X-673380D01*
Y-2498750D01*
X-697010Y-2530510D01*
X-724570Y-2551670D01*
X-763940Y-2562250D01*
X-803310Y-2551670D01*
X-830870Y-2530510D01*
X-854490Y-2498750D01*
X-870240Y-2461710D01*
X-878120Y-2419380D01*
Y-2382330D01*
X-870240Y-2350590D01*
X-854490Y-2313540D01*
X-830870Y-2281790D01*
X-807250Y-2260630D01*
X-775750Y-2244750D01*
X-748190D01*
X-716700Y-2255330D01*
X-693070Y-2276500D01*
G01X-547400Y-2244750D02*
Y-2472290D01*
X-531660Y-2519930D01*
X-500160Y-2551670D01*
X-460790Y-2562250D01*
X-421420Y-2551670D01*
X-389920Y-2519930D01*
X-374180Y-2472290D01*
Y-2244750D01*
G01X-224570Y-2562250D02*
Y-2244750D01*
X-126150D01*
X-94650Y-2260630D01*
X-74960Y-2281790D01*
X-67090Y-2324130D01*
X-74960Y-2366460D01*
X-98590Y-2392910D01*
X-126150Y-2408800D01*
X-224570D01*
G01X-126150D02*
X-67090Y-2562250D01*
G01X247870D02*
X90390D01*
Y-2244750D01*
X247870D01*
G01X184880Y-2398200D02*
X90390D01*
G01X-1760000Y-2721000D02*
X10838400D01*
G01X-1760000Y-2086000D02*
X10838400D01*
G01X-1760000Y-1451000D02*
X10838400D01*
G01X188810Y-1927250D02*
X287240Y-1609750D01*
X385670Y-1927250D01*
G01X350230Y-1816130D02*
X224240D01*
G01X523460Y-1609750D02*
Y-1927250D01*
X680940D01*
G01X838420Y-1609750D02*
Y-1927250D01*
X995900D01*
G01X1460470Y-1609750D02*
Y-1837290D01*
X1476210Y-1884930D01*
X1507710Y-1916670D01*
X1547080Y-1927250D01*
X1586450Y-1916670D01*
X1617950Y-1884930D01*
X1633690Y-1837290D01*
Y-1609750D01*
G01X1771490Y-1927250D02*
Y-1609750D01*
X1952590Y-1927250D01*
Y-1609750D01*
G01X2129760D02*
X2224240D01*
G01X2177000D02*
Y-1927250D01*
G01X2129760D02*
X2224240D01*
G01X2491960Y-1609750D02*
Y-1927250D01*
G01X2401410Y-1609750D02*
X2582510D01*
G01X2724240Y-1884930D02*
X2755740Y-1911380D01*
X2791170Y-1927250D01*
X2822670D01*
X2854160Y-1911380D01*
X2877790Y-1884930D01*
X2889600Y-1847870D01*
X2881730Y-1810840D01*
X2862040Y-1779090D01*
X2826600Y-1757910D01*
X2779360Y-1747330D01*
X2751800Y-1726170D01*
X2739990Y-1689130D01*
X2747870Y-1652080D01*
X2767550Y-1625630D01*
X2795110Y-1609750D01*
X2822670D01*
X2850230Y-1620330D01*
X2873850Y-1646790D01*
G01X3338410Y-1927250D02*
X3436840Y-1609750D01*
X3535270Y-1927250D01*
G01X3499830Y-1816130D02*
X3373840D01*
G01X3673060Y-1927250D02*
Y-1609750D01*
X3771480D01*
X3802980Y-1625630D01*
X3822670Y-1646790D01*
X3830540Y-1689130D01*
X3822670Y-1731460D01*
X3799040Y-1757910D01*
X3771480Y-1773800D01*
X3673060D01*
G01X3771480D02*
X3830540Y-1927250D01*
G01X4145500D02*
X3988020D01*
Y-1609750D01*
X4145500D01*
G01X4082510Y-1763200D02*
X3988020D01*
G01X4649440Y-1609750D02*
X4743920D01*
G01X4696680D02*
Y-1927250D01*
G01X4649440D02*
X4743920D01*
G01X4921090D02*
Y-1609750D01*
X5102190Y-1927250D01*
Y-1609750D01*
G01X5539190Y-1927250D02*
Y-1609750D01*
X5641560Y-1874330D01*
X5743930Y-1609750D01*
Y-1927250D01*
G01X5909280Y-1609750D02*
X6003760D01*
G01X5956520D02*
Y-1927250D01*
G01X5909280D02*
X6003760D01*
G01X6192740Y-1609750D02*
Y-1927250D01*
X6350220D01*
G01X6507700Y-1609750D02*
Y-1927250D01*
X6665180D01*
G01X6854160Y-1609750D02*
X6948640D01*
G01X6901400D02*
Y-1927250D01*
G01X6854160D02*
X6948640D01*
G01X7113990D02*
Y-1609750D01*
X7216360Y-1874330D01*
X7318730Y-1609750D01*
Y-1927250D01*
G01X7610060D02*
X7452580D01*
Y-1609750D01*
X7610060D01*
G01X7547070Y-1763200D02*
X7452580D01*
G01X7846280Y-1609750D02*
Y-1927250D01*
G01X7755730Y-1609750D02*
X7936830D01*
G01X8239980Y-1927250D02*
X8082500D01*
Y-1609750D01*
X8239980D01*
G01X8176990Y-1763200D02*
X8082500D01*
G01X8397460Y-1927250D02*
Y-1609750D01*
X8495880D01*
X8527380Y-1625630D01*
X8547070Y-1646790D01*
X8554940Y-1689130D01*
X8547070Y-1731460D01*
X8523440Y-1757910D01*
X8495880Y-1773800D01*
X8397460D01*
G01X8495880D02*
X8554940Y-1927250D01*
G01X8708480Y-1884930D02*
X8739980Y-1911380D01*
X8775410Y-1927250D01*
X8806910D01*
X8838400Y-1911380D01*
X8862030Y-1884930D01*
X8873840Y-1847870D01*
X8865970Y-1810840D01*
X8846280Y-1779090D01*
X8810840Y-1757910D01*
X8763600Y-1747330D01*
X8736040Y-1726170D01*
X8724230Y-1689130D01*
X8732110Y-1652080D01*
X8751790Y-1625630D01*
X8779350Y-1609750D01*
X8806910D01*
X8834470Y-1620330D01*
X8858090Y-1646790D01*
G01X523460Y-2086000D02*
Y-3356000D01*
G01X1117940Y-2562250D02*
Y-2244750D01*
X1267560D01*
G01X1212430Y-2398200D02*
X1117940D01*
G01X1460470Y-2244750D02*
X1554950D01*
G01X1507710D02*
Y-2562250D01*
G01X1460470D02*
X1554950D01*
G01X1732120D02*
Y-2244750D01*
X1913220Y-2562250D01*
Y-2244750D01*
G01X2090390D02*
X2184870D01*
G01X2137630D02*
Y-2562250D01*
G01X2090390D02*
X2184870D01*
G01X2369910Y-2519930D02*
X2401410Y-2546380D01*
X2436840Y-2562250D01*
X2468340D01*
X2499830Y-2546380D01*
X2523460Y-2519930D01*
X2535270Y-2482870D01*
X2527400Y-2445840D01*
X2507710Y-2414090D01*
X2472270Y-2392910D01*
X2425030Y-2382330D01*
X2397470Y-2361170D01*
X2385660Y-2324130D01*
X2393540Y-2287080D01*
X2413220Y-2260630D01*
X2440780Y-2244750D01*
X2468340D01*
X2495900Y-2255330D01*
X2519520Y-2281790D01*
G01X2684870Y-2562250D02*
Y-2244750D01*
G01X2850230D02*
Y-2562250D01*
G01Y-2403500D02*
X2684870D01*
G01X3161250Y-2562250D02*
X3003770D01*
Y-2244750D01*
X3161250D01*
G01X3098260Y-2398200D02*
X3003770D01*
G01X3310860Y-2562250D02*
Y-2244750D01*
X3389590D01*
X3421090Y-2260630D01*
X3444710Y-2281790D01*
X3464400Y-2313540D01*
X3480150Y-2350590D01*
X3484080Y-2403500D01*
X3480150Y-2456420D01*
X3464400Y-2493460D01*
X3444710Y-2525220D01*
X3421090Y-2546380D01*
X3389590Y-2562250D01*
X3310860D01*
G01X3594320Y-2668080D02*
X3830540D01*
G01X3944710Y-2519930D02*
X3976210Y-2546380D01*
X4011640Y-2562250D01*
X4043140D01*
X4074630Y-2546380D01*
X4098260Y-2519930D01*
X4110070Y-2482870D01*
X4102200Y-2445840D01*
X4082510Y-2414090D01*
X4047070Y-2392910D01*
X3999830Y-2382330D01*
X3972270Y-2361170D01*
X3960460Y-2324130D01*
X3968340Y-2287080D01*
X3988020Y-2260630D01*
X4015580Y-2244750D01*
X4043140D01*
X4070700Y-2255330D01*
X4094320Y-2281790D01*
G01X4295110Y-2244750D02*
X4389590D01*
G01X4342350D02*
Y-2562250D01*
G01X4295110D02*
X4389590D01*
G01X4582500Y-2244750D02*
X4732120D01*
X4582500Y-2562250D01*
X4732120D01*
G01X5051010D02*
X4893530D01*
Y-2244750D01*
X5051010D01*
G01X4988020Y-2398200D02*
X4893530D01*
G01X515590Y-1277250D02*
Y-959750D01*
X594320D01*
X625820Y-975630D01*
X649440Y-996790D01*
X669130Y-1028540D01*
X684880Y-1065590D01*
X688810Y-1118500D01*
X684880Y-1171420D01*
X669130Y-1208460D01*
X649440Y-1240220D01*
X625820Y-1261380D01*
X594320Y-1277250D01*
X515590D01*
G01X838420D02*
Y-959750D01*
X936840D01*
X968340Y-975630D01*
X988030Y-996790D01*
X995900Y-1039130D01*
X988030Y-1081460D01*
X964400Y-1107910D01*
X936840Y-1123800D01*
X838420D01*
G01X936840D02*
X995900Y-1277250D01*
G01X1184880Y-959750D02*
X1279360D01*
G01X1232120D02*
Y-1277250D01*
G01X1184880D02*
X1279360D01*
G01X1468340Y-959750D02*
Y-1277250D01*
X1625820D01*
G01X1783300Y-959750D02*
Y-1277250D01*
X1940780D01*
G01X2578570Y-986210D02*
X2554950Y-970330D01*
X2527400Y-959750D01*
X2495900D01*
X2460460Y-975630D01*
X2432910Y-1002080D01*
X2413220Y-1033840D01*
X2397470Y-1086750D01*
X2393530Y-1134380D01*
X2401410Y-1182000D01*
X2413220Y-1213750D01*
X2436840Y-1245510D01*
X2464400Y-1266670D01*
X2491960Y-1277250D01*
X2519520D01*
X2547080Y-1266670D01*
X2570700Y-1250800D01*
X2590390Y-1229640D01*
G01X2724240Y-1277250D02*
Y-959750D01*
G01X2889600D02*
Y-1277250D01*
G01Y-1118500D02*
X2724240D01*
G01X3023450Y-1277250D02*
X3121880Y-959750D01*
X3220310Y-1277250D01*
G01X3184870Y-1166130D02*
X3058880D01*
G01X3358100Y-1277250D02*
Y-959750D01*
X3456520D01*
X3488020Y-975630D01*
X3507710Y-996790D01*
X3515580Y-1039130D01*
X3507710Y-1081460D01*
X3484080Y-1107910D01*
X3456520Y-1123800D01*
X3358100D01*
G01X3456520D02*
X3515580Y-1277250D01*
G01X3751800Y-959750D02*
Y-1277250D01*
G01X3661250Y-959750D02*
X3842350D01*
G01X4066760Y-1287830D02*
X4058880Y-1282540D01*
Y-1271960D01*
X4066760Y-1266670D01*
X4074640Y-1271960D01*
Y-1282540D01*
X4066760Y-1287830D01*
G01Y-1144970D02*
X4058880Y-1139670D01*
Y-1129090D01*
X4066760Y-1123800D01*
X4074640Y-1129090D01*
Y-1139670D01*
X4066760Y-1144970D01*
G01X4696680Y-959750D02*
Y-1277250D01*
G01X4606130Y-959750D02*
X4787230D01*
G01X5011640Y-1277250D02*
X4980140Y-1271960D01*
X4952590Y-1250800D01*
X4928960Y-1219040D01*
X4913210Y-1182000D01*
X4905340Y-1139670D01*
Y-1097330D01*
X4913210Y-1055000D01*
X4928960Y-1017960D01*
X4952590Y-986210D01*
X4980140Y-965040D01*
X5011640Y-959750D01*
X5043130Y-965040D01*
X5070690Y-986210D01*
X5094320Y-1017960D01*
X5110070Y-1055000D01*
X5117940Y-1097330D01*
Y-1139670D01*
X5110070Y-1182000D01*
X5094320Y-1219040D01*
X5070690Y-1250800D01*
X5043130Y-1271960D01*
X5011640Y-1277250D01*
G01X5247860D02*
Y-959750D01*
X5342350D01*
X5373840Y-975630D01*
X5397470Y-1012670D01*
X5405340Y-1055000D01*
X5397470Y-1097330D01*
X5377780Y-1129090D01*
X5342350Y-1144970D01*
X5247860D01*
G01X5956520Y-959750D02*
Y-1277250D01*
G01X5901400Y-1065590D02*
X6011640D01*
G01X6271480Y-1277250D02*
X6247860Y-1271960D01*
X6224240Y-1250800D01*
X6208480Y-1213750D01*
X6200610Y-1171420D01*
X6208480Y-1129090D01*
X6224240Y-1092040D01*
X6247860Y-1070880D01*
X6271480Y-1065590D01*
X6295100Y-1070880D01*
X6318720Y-1092040D01*
X6334470Y-1129090D01*
X6338410Y-1171420D01*
X6334470Y-1213750D01*
X6318720Y-1250800D01*
X6295100Y-1271960D01*
X6271480Y-1277250D01*
G01X6932890Y-1107910D02*
X6948640Y-1092040D01*
X6960450Y-1065590D01*
X6968330Y-1028540D01*
X6960450Y-996790D01*
X6944710Y-975630D01*
X6917150Y-959750D01*
X6810850D01*
Y-1277250D01*
X6940770D01*
X6968330Y-1256090D01*
X6984080Y-1224330D01*
X6991950Y-1187290D01*
X6984080Y-1150260D01*
X6960450Y-1118500D01*
X6932890Y-1107910D01*
X6810850D01*
G01X7216360Y-1277250D02*
X7184860Y-1271960D01*
X7157310Y-1250800D01*
X7133680Y-1219040D01*
X7117930Y-1182000D01*
X7110060Y-1139670D01*
Y-1097330D01*
X7117930Y-1055000D01*
X7133680Y-1017960D01*
X7157310Y-986210D01*
X7184860Y-965040D01*
X7216360Y-959750D01*
X7247850Y-965040D01*
X7275410Y-986210D01*
X7299040Y-1017960D01*
X7314790Y-1055000D01*
X7322660Y-1097330D01*
Y-1139670D01*
X7314790Y-1182000D01*
X7299040Y-1219040D01*
X7275410Y-1250800D01*
X7247850Y-1271960D01*
X7216360Y-1277250D01*
G01X7531320Y-959750D02*
Y-1277250D01*
G01X7440770Y-959750D02*
X7621870D01*
G01X7846280D02*
Y-1277250D01*
G01X7755730Y-959750D02*
X7936830D01*
G01X8161240Y-1277250D02*
X8129740Y-1271960D01*
X8102190Y-1250800D01*
X8078560Y-1219040D01*
X8062810Y-1182000D01*
X8054940Y-1139670D01*
Y-1097330D01*
X8062810Y-1055000D01*
X8078560Y-1017960D01*
X8102190Y-986210D01*
X8129740Y-965040D01*
X8161240Y-959750D01*
X8192730Y-965040D01*
X8220290Y-986210D01*
X8243920Y-1017960D01*
X8259670Y-1055000D01*
X8267540Y-1097330D01*
Y-1139670D01*
X8259670Y-1182000D01*
X8243920Y-1219040D01*
X8220290Y-1250800D01*
X8192730Y-1271960D01*
X8161240Y-1277250D01*
G01X8373830D02*
Y-959750D01*
X8476200Y-1224330D01*
X8578570Y-959750D01*
Y-1277250D01*
G01X2767550Y-2879750D02*
X2736050Y-2890330D01*
X2712430Y-2916790D01*
X2696680Y-2948540D01*
X2684870Y-2990880D01*
X2680940Y-3038500D01*
X2684870Y-3086130D01*
X2696680Y-3128460D01*
X2712430Y-3160220D01*
X2736050Y-3186670D01*
X2767550Y-3197250D01*
X2799040Y-3186670D01*
X2822670Y-3160220D01*
X2838420Y-3128460D01*
X2850230Y-3086130D01*
X2854160Y-3038500D01*
X2850230Y-2990880D01*
X2838420Y-2948540D01*
X2822670Y-2916790D01*
X2799040Y-2890330D01*
X2767550Y-2879750D01*
G01X3082510Y-3207830D02*
X3074630Y-3202540D01*
Y-3191960D01*
X3082510Y-3186670D01*
X3090390Y-3191960D01*
Y-3202540D01*
X3082510Y-3207830D01*
G01X3444710Y-3197250D02*
Y-2879750D01*
X3299040Y-3107290D01*
X3495900D01*
G01X5641560Y-2086000D02*
Y-3356000D01*
G01X6389590Y-3197250D02*
Y-2879750D01*
X6484080D01*
X6515570Y-2895630D01*
X6539200Y-2932670D01*
X6547070Y-2975000D01*
X6539200Y-3017330D01*
X6519510Y-3049090D01*
X6484080Y-3064970D01*
X6389590D01*
G01X6704550Y-2879750D02*
Y-3197250D01*
X6862030D01*
G01X6999820D02*
X7098250Y-2879750D01*
X7196680Y-3197250D01*
G01X7161240Y-3086130D02*
X7035250D01*
G01X7413210Y-2879750D02*
Y-3197250D01*
G01X7322660Y-2879750D02*
X7503760D01*
G01X7806910Y-3197250D02*
X7649430D01*
Y-2879750D01*
X7806910D01*
G01X7743920Y-3033200D02*
X7649430D01*
G01X7956520Y-3197250D02*
Y-2879750D01*
X8035250D01*
X8066750Y-2895630D01*
X8090370Y-2916790D01*
X8110060Y-2948540D01*
X8125810Y-2985590D01*
X8129740Y-3038500D01*
X8125810Y-3091420D01*
X8110060Y-3128460D01*
X8090370Y-3160220D01*
X8066750Y-3181380D01*
X8035250Y-3197250D01*
X7956520D01*
G01X6389590Y-2562250D02*
Y-2244750D01*
X6484080D01*
X6515570Y-2260630D01*
X6539200Y-2297670D01*
X6547070Y-2340000D01*
X6539200Y-2382330D01*
X6519510Y-2414090D01*
X6484080Y-2429970D01*
X6389590D01*
G01X6704550Y-2244750D02*
Y-2562250D01*
X6862030D01*
G01X6999820D02*
X7098250Y-2244750D01*
X7196680Y-2562250D01*
G01X7161240Y-2451130D02*
X7035250D01*
G01X7413210Y-2244750D02*
Y-2562250D01*
G01X7322660Y-2244750D02*
X7503760D01*
G01X7806910Y-2562250D02*
X7649430D01*
Y-2244750D01*
X7806910D01*
G01X7743920Y-2398200D02*
X7649430D01*
G01X7956520Y-2562250D02*
Y-2244750D01*
X8035250D01*
X8066750Y-2260630D01*
X8090370Y-2281790D01*
X8110060Y-2313540D01*
X8125810Y-2350590D01*
X8129740Y-2403500D01*
X8125810Y-2456420D01*
X8110060Y-2493460D01*
X8090370Y-2525220D01*
X8066750Y-2546380D01*
X8035250Y-2562250D01*
X7956520D01*
G01X8869900Y-2086000D02*
Y-3356000D01*
G01X9539190Y-2562250D02*
X9507690Y-2556960D01*
X9480140Y-2535800D01*
X9456510Y-2504040D01*
X9440760Y-2467000D01*
X9432890Y-2424670D01*
Y-2382330D01*
X9440760Y-2340000D01*
X9456510Y-2302960D01*
X9480140Y-2271210D01*
X9507690Y-2250040D01*
X9539190Y-2244750D01*
X9570680Y-2250040D01*
X9598240Y-2271210D01*
X9621870Y-2302960D01*
X9637620Y-2340000D01*
X9645490Y-2382330D01*
Y-2424670D01*
X9637620Y-2467000D01*
X9621870Y-2504040D01*
X9598240Y-2535800D01*
X9570680Y-2556960D01*
X9539190Y-2562250D01*
G01X9570680Y-2477580D02*
X9617930Y-2562250D01*
G01X9854150Y-2244750D02*
Y-2562250D01*
G01X9763600Y-2244750D02*
X9944700D01*
G01X10169110Y-2562250D02*
Y-2419380D01*
X10090370Y-2244750D01*
G01X10247850D02*
X10169110Y-2419380D01*
G01X9696670Y-3197250D02*
Y-2879750D01*
X9649430Y-2943250D01*
G01Y-3197250D02*
X9743910D01*
G01X9936820Y-3064970D02*
X9964390Y-3027910D01*
X9988010Y-3006750D01*
X10019510Y-2996170D01*
X10047070Y-3006750D01*
X10066750Y-3027910D01*
X10082500Y-3059670D01*
X10086440Y-3096710D01*
X10082500Y-3128460D01*
X10066750Y-3160220D01*
X10043120Y-3186670D01*
X10015570Y-3197250D01*
X9984070Y-3186670D01*
X9956510Y-3154930D01*
X9940760Y-3107290D01*
X9936820Y-3054380D01*
X9944700Y-2985590D01*
X9956510Y-2948540D01*
X9976190Y-2911500D01*
X10003750Y-2885040D01*
X10031310Y-2879750D01*
X10058870Y-2890330D01*
X10078560Y-2916790D01*
M02*
