G04 ================== begin FILE IDENTIFICATION RECORD ==================*
G04 Layout Name:  NISIPEANU_ALEXANDRU_P1_N15.brd*
G04 Film Name:    SMTOP*
G04 File Format:  Gerber RS274X*
G04 File Origin:  Cadence Allegro 17.2-S025*
G04 Origin Date:  Sun Dec 15 15:18:34 2024*
G04 *
G04 Layer:  VIA CLASS/SOLDERMASK_TOP*
G04 Layer:  PIN/SOLDERMASK_TOP*
G04 Layer:  PACKAGE GEOMETRY/SOLDERMASK_TOP*
G04 Layer:  DRC ERROR CLASS/SOLDERMASK_TOP*
G04 Layer:  BOARD GEOMETRY/SOLDERMASK_TOP*
G04 *
G04 Offset:    (0.0000 0.0000)*
G04 Mirror:    No*
G04 Mode:      Positive*
G04 Rotation:  0*
G04 FullContactRelief:  No*
G04 UndefLineWidth:     0.1000*
G04 ================== end FILE IDENTIFICATION RECORD ====================*
%FSLAX25Y25*MOMM*%
%IR0*IPPOS*OFA0.00000B0.00000*MIA0B0*SFA1.00000B1.00000*%
%ADD16C,2.*%
%ADD12R,3.302X2.1844*%
%ADD19R,2.254X1.554*%
%ADD17R,1.554X2.254*%
%ADD15C,1.1176*%
%ADD18R,1.1684X1.524*%
%ADD14R,1.524X1.1684*%
%ADD11R,1.524X1.524*%
%ADD13R,1.554X1.554*%
%ADD10R,1.4732X2.1844*%
%ADD20R,2.1844X1.4732*%
%LPD*%
G75*
G54D10*
X329130Y511170D03*
X529790D03*
X1063340Y3608000D03*
X1264000D03*
G54D20*
X3176100Y2144820D03*
Y1944160D03*
G54D11*
X292350Y1039290D03*
X303000Y3721000D03*
X505710Y1039290D03*
X769000Y1411000D03*
X1061000Y1410000D03*
X769000Y1624360D03*
X1061000Y1623360D03*
X516360Y3721000D03*
X1985310Y579690D03*
Y793050D03*
X1625000Y1431000D03*
X1411640D03*
X1930140Y1958460D03*
X1597000Y3460000D03*
Y3673360D03*
X1924020Y3569520D03*
X2683020Y808680D03*
X2143500Y1958460D03*
X2550210Y2489910D03*
X2763570D03*
X2566920Y2810790D03*
X2093910Y2861460D03*
X2137380Y3569520D03*
X2093910Y3074820D03*
X2896380Y808680D03*
X3121710Y1538970D03*
X2908350D03*
X2780280Y2810790D03*
X3122610Y2897670D03*
X3335970D03*
X3671370Y2826400D03*
Y3039760D03*
G54D12*
X385000Y2128000D03*
Y1528560D03*
X385950Y2556750D03*
Y3156190D03*
X3649860Y1774620D03*
Y2374060D03*
G54D13*
X1051000Y626000D03*
Y856000D03*
X2022060Y1231470D03*
Y1461470D03*
X3510000Y1308000D03*
X3280000D03*
X3069930Y3689210D03*
Y3459210D03*
G54D14*
X894650Y2016890D03*
X1097850Y2115950D03*
X1064700Y2558000D03*
Y2753580D03*
X861500Y2654520D03*
X894650Y2212470D03*
X1057120Y3071490D03*
Y3267070D03*
X853920Y3168010D03*
X1609700Y1944000D03*
Y2139580D03*
X1406500Y2040520D03*
X1589700Y2493000D03*
Y2688580D03*
X1386500Y2589520D03*
X1672090Y2921070D03*
Y3116650D03*
X1468890Y3017590D03*
X2514110Y2108880D03*
Y1913300D03*
X2717310Y2012360D03*
X2654700Y3114000D03*
Y3309580D03*
X2451500Y3210520D03*
G54D15*
X1169000Y1931000D03*
X717000Y1816000D03*
X1410000Y1694000D03*
X1664000Y1732000D03*
X1256000Y1632000D03*
X1658000Y2320000D03*
X1774000Y2646000D03*
X1267420Y2753580D03*
X1243000Y3072000D03*
X1877000Y2996000D03*
X2253000Y867000D03*
X2344000Y2489000D03*
X2287000Y2952000D03*
X3122610Y2606610D03*
X2813000Y3114000D03*
X3510000Y1515000D03*
G54D16*
X508000Y3492000D03*
X3492000Y508000D03*
G54D17*
X1616000Y741000D03*
X2587060Y1346470D03*
X3634930Y3574210D03*
G54D18*
X1980270Y2353550D03*
X2175850D03*
X2076790Y2556750D03*
X2468000Y3534300D03*
X2663580D03*
X2564520Y3737500D03*
G54D19*
X3395000Y743000D03*
M02*
