G04 ================== begin FILE IDENTIFICATION RECORD ==================*
G04 Layout Name:  NISIPEANU_ALEXANDRU_P1_N15.brd*
G04 Film Name:    TOP*
G04 File Format:  Gerber RS274X*
G04 File Origin:  Cadence Allegro 17.2-S025*
G04 Origin Date:  Sun Dec 15 15:18:34 2024*
G04 *
G04 Layer:  ETCH/TOP*
G04 Layer:  PIN/TOP*
G04 Layer:  VIA CLASS/TOP*
G04 *
G04 Offset:    (0.0000 0.0000)*
G04 Mirror:    No*
G04 Mode:      Positive*
G04 Rotation:  0*
G04 FullContactRelief:  No*
G04 UndefLineWidth:     0.1000*
G04 ================== end FILE IDENTIFICATION RECORD ====================*
%FSLAX25Y25*MOMM*%
%IR0*IPPOS*OFA0.00000B0.00000*MIA0B0*SFA1.00000B1.00000*%
%ADD18R,.9144X1.27*%
%ADD14R,1.27X.9144*%
%ADD15C,.8636*%
%ADD19R,2.X1.3*%
%ADD17R,1.3X2.*%
%ADD16C,1.*%
%ADD13R,1.3X1.3*%
%ADD11R,1.27X1.27*%
%ADD12R,3.048X1.9304*%
%ADD10R,1.2192X1.9304*%
%ADD20R,1.9304X1.2192*%
%ADD21C,.45*%
%ADD22C,.4064*%
%ADD23C,.6604*%
%ADD24C,.4572*%
G75*
%LPD*%
G75*
G54D10*
X329130Y511170D03*
X529790D03*
X1063340Y3608000D03*
X1264000D03*
G54D20*
X3176100Y2144820D03*
Y1944160D03*
G54D11*
X292350Y1039290D03*
X303000Y3721000D03*
X505710Y1039290D03*
X769000Y1411000D03*
X1061000Y1410000D03*
X769000Y1624360D03*
X1061000Y1623360D03*
X516360Y3721000D03*
X1985310Y579690D03*
Y793050D03*
X1625000Y1431000D03*
X1411640D03*
X1930140Y1958460D03*
X1597000Y3460000D03*
Y3673360D03*
X1924020Y3569520D03*
X2683020Y808680D03*
X2143500Y1958460D03*
X2550210Y2489910D03*
X2763570D03*
X2566920Y2810790D03*
X2093910Y2861460D03*
X2137380Y3569520D03*
X2093910Y3074820D03*
X2896380Y808680D03*
X3121710Y1538970D03*
X2908350D03*
X2780280Y2810790D03*
X3122610Y2897670D03*
X3335970D03*
X3671370Y2826400D03*
Y3039760D03*
G54D21*
G01X1589700Y2688580D02*
X1731420D01*
X1774000Y2646000D01*
G54D12*
X385000Y2128000D03*
Y1528560D03*
X385950Y2556750D03*
Y3156190D03*
X3649860Y1774620D03*
Y2374060D03*
G54D22*
G01X329130Y511170D02*
Y640390D01*
X330000Y641260D01*
Y731000D01*
X505710Y906710D01*
Y1039290D01*
G01X1051000Y856000D02*
X921000D01*
X887000Y890000D01*
Y1028000D01*
X944000Y1085000D01*
X1706000D01*
X1824000Y967000D01*
Y825000D01*
X1855950Y793050D01*
X1985310D01*
G01X1061000Y1623360D02*
Y1823000D01*
X1169000Y1931000D01*
G01X769000Y1624360D02*
Y1720560D01*
X894000Y1845560D01*
Y1937820D01*
X894650Y1938470D01*
Y2016890D01*
G01X1097850Y2115950D02*
X1097900Y2116000D01*
X1244000D01*
G01D02*
Y2324000D01*
X1210000Y2358000D01*
X961760D01*
X894650Y2290890D01*
Y2212470D01*
G01X1064700Y2753580D02*
X1267420D01*
G01X791010Y2971010D02*
X734000Y2914000D01*
Y2685820D01*
X765300Y2654520D01*
X861500D01*
G01X1437000Y2320000D02*
X1319000Y2438000D01*
X1106280D01*
X1064700Y2479580D01*
Y2558000D01*
G01X1597000Y3460000D02*
Y3298000D01*
X1566070Y3267070D01*
X1057120D01*
G01X1063340Y3608000D02*
X969680D01*
X968680Y3607000D01*
X780000D01*
X666000Y3721000D01*
X516360D01*
G01X1243000Y3072000D02*
X1153830D01*
X1153320Y3071490D01*
X1057120D01*
G01X853920Y3168010D02*
Y3033920D01*
X791010Y2971010D01*
G01D02*
X821020Y2941000D01*
X1005050D01*
X1057120Y2993070D01*
Y3071490D01*
G01X2908350Y1538970D02*
Y1442770D01*
X2907000Y1441420D01*
Y1049000D01*
X2872000Y1014000D01*
X1927000D01*
X1880180Y1060820D01*
Y1203180D01*
X1908470Y1231470D01*
X2022060D01*
G01X1609700Y1944000D02*
X1705900D01*
X1762000Y2000100D01*
Y2137000D01*
X1818000Y2193000D01*
X1938000D01*
X1980270Y2235270D01*
Y2353550D01*
G01X1609700Y1944000D02*
Y1849700D01*
X1529000Y1769000D01*
G01D02*
Y1688000D01*
X1626000Y1591000D01*
Y1528200D01*
X1625000Y1527200D01*
Y1431000D01*
G01X1244000Y2116000D02*
Y2007000D01*
X1284000Y1967000D01*
X1290000D01*
X1488000Y1769000D01*
X1529000D01*
G01X1437000Y2320000D02*
X1405000Y2288000D01*
Y2120440D01*
X1406500Y2118940D01*
Y2040520D01*
G01X1386500Y2589520D02*
Y2784500D01*
X1385000Y2786000D01*
Y2799000D01*
G01D02*
X1395130Y2809130D01*
X1837200D01*
X1889530Y2861460D01*
X2093910D01*
G01X1385000Y2799000D02*
X1334290Y2849710D01*
Y2984000D01*
X1367880Y3017590D01*
X1468890D01*
G01X1658000Y2320000D02*
X1609700Y2271700D01*
Y2139580D01*
G01X1589700Y2493000D02*
Y2406990D01*
X1502710Y2320000D01*
X1437000D01*
G01X2137380Y3569520D02*
Y3473320D01*
X2138000Y3472700D01*
Y3386000D01*
X2102000Y3350000D01*
X1937000D01*
X1897000Y3310000D01*
Y3159000D01*
X1854650Y3116650D01*
X1672090D01*
G01Y2921070D02*
X1837000D01*
X1877000Y2961070D01*
Y2996000D01*
G01X2683020Y808680D02*
X2507190D01*
G01D02*
X2448870Y867000D01*
X2253000D01*
G01X2507190Y808680D02*
X2409510Y711000D01*
X2172000D01*
X2089950Y793050D01*
X1985310D01*
G01X2143500Y1958460D02*
Y2129500D01*
X2178000Y2164000D01*
Y2255200D01*
X2175850Y2257350D01*
Y2353550D01*
G01X2717310Y2012360D02*
X2813510D01*
X2813870Y2012000D01*
X2873000D01*
X2925000Y1960000D01*
Y1853000D01*
X2720000Y1648000D01*
Y1381710D01*
X2684760Y1346470D01*
X2587060D01*
G01X2093910Y2861460D02*
X2196460D01*
X2287000Y2952000D01*
G01X2566920Y2810790D02*
X2428210D01*
X2398000Y2841000D01*
G01D02*
X2255000Y2698000D01*
X2121840D01*
X2076790Y2652950D01*
Y2556750D01*
G01X2398000Y2841000D02*
Y3035000D01*
X2358180Y3074820D01*
X2093910D01*
G01X2944000Y3092000D02*
Y3052000D01*
X2866000Y2974000D01*
X2584000D01*
X2566920Y2956920D01*
Y2810790D01*
G01X2344000Y2489000D02*
X2453100D01*
X2454010Y2489910D01*
X2550210D01*
G01D02*
Y2586110D01*
X2548000Y2588320D01*
Y2632000D01*
X2583000Y2667000D01*
X2746000D01*
X2780280Y2701280D01*
Y2810790D01*
G01X2763570Y2489910D02*
Y2393710D01*
X2763000Y2393140D01*
Y2302000D01*
X2726000Y2265000D01*
X2547000D01*
X2514110Y2232110D01*
Y2108880D01*
G01X2813000Y3114000D02*
X2654700D01*
G01X2663580Y3534300D02*
Y3419580D01*
X2654700Y3410700D01*
Y3309580D01*
G01X2451500Y3210520D02*
X2289000D01*
X2244310Y3255210D01*
X2139210D01*
X2093910Y3209910D01*
Y3074820D01*
G01X3072000Y635000D02*
X3147000Y560000D01*
X3315000D01*
X3395000Y640000D01*
Y743000D01*
G01X2896380Y808680D02*
Y682620D01*
X2944000Y635000D01*
X3072000D01*
G01D02*
Y1279000D01*
X3101000Y1308000D01*
X3280000D01*
G01X2908350Y1538970D02*
Y1679350D01*
X2953000Y1724000D01*
X3145000D01*
X3176000Y1755000D01*
Y1850400D01*
X3176100Y1850500D01*
Y1944160D01*
G01X3122610Y2897670D02*
Y2606610D01*
G01X3335970Y2897670D02*
Y2750970D01*
X3239000Y2654000D01*
Y2459000D01*
X3176100Y2396100D01*
Y2144820D01*
G01X3122610Y2897670D02*
Y3039390D01*
X3070000Y3092000D01*
X2944000D01*
G01D02*
Y3150010D01*
X2815000Y3279010D01*
Y3630000D01*
X2874210Y3689210D01*
X3069930D01*
G01X3510000Y1515000D02*
Y1308000D01*
G54D13*
X1051000Y626000D03*
Y856000D03*
X2022060Y1231470D03*
Y1461470D03*
X3510000Y1308000D03*
X3280000D03*
X3069930Y3689210D03*
Y3459210D03*
G54D23*
G01X1264000Y3608000D02*
Y3454000D01*
X1199000Y3389000D01*
X735000D01*
X635000Y3289000D01*
Y2608200D01*
X583550Y2556750D01*
X385950D01*
G01X385000Y2128000D02*
X576000D01*
X641000Y2063000D01*
Y1892000D01*
X717000Y1816000D01*
G01X385950Y2556750D02*
Y2270670D01*
X385000Y2269720D01*
Y2128000D01*
G01X873000Y626000D02*
X758170Y511170D01*
G01D02*
X938340Y331000D01*
X1873000D01*
G01X758170Y511170D02*
X529790D01*
G01X1051000Y626000D02*
X873000D01*
G01X1410000Y1237000D02*
X1374000Y1201000D01*
X908000D01*
X733000Y1026000D01*
Y766000D01*
X873000Y626000D01*
G01X1772000Y620000D02*
X1836300D01*
X1876610Y579690D01*
X1985310D01*
G01X1772000Y620000D02*
Y519000D01*
X1873000Y418000D01*
Y331000D01*
G01D02*
X3716000D01*
X3806500Y421500D01*
Y1419360D01*
X3649860Y1576000D01*
Y1774620D01*
G01X2022060Y1461470D02*
X1902470D01*
X1863000Y1422000D01*
Y1313000D01*
X1729000Y1179000D01*
X1468000D01*
X1410000Y1237000D01*
G01X1616000Y741000D02*
X1726200D01*
X1772000Y695200D01*
Y620000D01*
G01X1410000Y1237000D02*
Y1320660D01*
X1411640Y1322300D01*
Y1431000D01*
G01X1410000Y1694000D02*
Y1613800D01*
X1411640Y1612160D01*
Y1431000D01*
G01X2514110Y1913300D02*
Y1822380D01*
X2512000Y1820270D01*
Y1776000D01*
X2465000Y1729000D01*
X2082000D01*
X2022060Y1669060D01*
Y1461470D01*
G01X3649860Y1774620D02*
X3357360D01*
G01D02*
X3305000Y1722260D01*
Y1578000D01*
X3265970Y1538970D01*
X3121710D01*
G01X3357360Y1774620D02*
X3377000Y1794260D01*
Y2534000D01*
X3421000Y2578000D01*
X3489000D01*
X3563000Y2652000D01*
Y2661000D01*
X3636000D01*
X3671370Y2696370D01*
Y2826400D01*
G01X3069930Y3459210D02*
X2956830D01*
X2910130Y3412510D01*
Y3309860D01*
X2994540Y3225450D01*
X3433610D01*
X3494650Y3164400D01*
Y2893900D01*
X3562150Y2826400D01*
X3671370D01*
G54D14*
X894650Y2016890D03*
X1097850Y2115950D03*
X1064700Y2558000D03*
Y2753580D03*
X861500Y2654520D03*
X894650Y2212470D03*
X1057120Y3071490D03*
Y3267070D03*
X853920Y3168010D03*
X1609700Y1944000D03*
Y2139580D03*
X1406500Y2040520D03*
X1589700Y2493000D03*
Y2688580D03*
X1386500Y2589520D03*
X1672090Y2921070D03*
Y3116650D03*
X1468890Y3017590D03*
X2514110Y2108880D03*
Y1913300D03*
X2717310Y2012360D03*
X2654700Y3114000D03*
Y3309580D03*
X2451500Y3210520D03*
G54D24*
G01X769000Y1411000D02*
Y1301000D01*
X668000Y1200000D01*
X452000D01*
X385000Y1267000D01*
G01D02*
Y1528560D01*
G01Y1267000D02*
X292350Y1174350D01*
Y1039290D01*
G01X385950Y3156190D02*
Y3353050D01*
X303000Y3436000D01*
Y3721000D01*
G01D02*
Y3819700D01*
X346300Y3863000D01*
X1563000D01*
X1596000Y3830000D01*
Y3773060D01*
X1597000Y3772060D01*
Y3673360D01*
G01X769000Y1411000D02*
X961300D01*
X962300Y1410000D01*
X1061000D01*
G01X1256000Y1632000D02*
Y1487000D01*
X1179000Y1410000D01*
X1061000D01*
G01X1930140Y1958460D02*
Y1763830D01*
X1898310Y1732000D01*
X1664000D01*
G01X1924020Y3569520D02*
X1799540D01*
X1695700Y3673360D01*
X1597000D01*
G01X2302000Y3767000D02*
X2254000Y3815000D01*
X1981000D01*
X1924020Y3758020D01*
Y3569520D01*
G01X2468000Y3534300D02*
X2465700Y3532000D01*
X2342000D01*
X2302000Y3572000D01*
Y3767000D01*
G01D02*
X2334000Y3799000D01*
X2393000D01*
X2454500Y3737500D01*
X2564520D01*
G01X3649860Y2374060D02*
Y2541860D01*
X3823000Y2715000D01*
Y2994000D01*
X3777240Y3039760D01*
X3671370D01*
G01D02*
Y3196370D01*
X3785000Y3310000D01*
Y3531000D01*
X3741790Y3574210D01*
X3634930D01*
G54D15*
X1169000Y1931000D03*
X717000Y1816000D03*
X1410000Y1694000D03*
X1664000Y1732000D03*
X1256000Y1632000D03*
X1658000Y2320000D03*
X1774000Y2646000D03*
X1267420Y2753580D03*
X1243000Y3072000D03*
X1877000Y2996000D03*
X2253000Y867000D03*
X2344000Y2489000D03*
X2287000Y2952000D03*
X3122610Y2606610D03*
X2813000Y3114000D03*
X3510000Y1515000D03*
G54D16*
X508000Y3492000D03*
X3492000Y508000D03*
G54D17*
X1616000Y741000D03*
X2587060Y1346470D03*
X3634930Y3574210D03*
G54D18*
X1980270Y2353550D03*
X2175850D03*
X2076790Y2556750D03*
X2468000Y3534300D03*
X2663580D03*
X2564520Y3737500D03*
G54D19*
X3395000Y743000D03*
M02*
